<svg xmlns="http://www.w3.org/2000/svg" xmlns:xlink="http://www.w3.org/1999/xlink" width="500" zoomAndPan="magnify" viewBox="0 0 375 374.999991" height="500" preserveAspectRatio="xMidYMid meet" version="1.0"><defs><g/></defs><path stroke-linecap="butt" transform="matrix(0.889354, 0, 0, 0.889354, 56.307306, 139.47667)" fill="none" stroke-linejoin="miter" d="M 17.456179 71.474672 C 14.355263 71.474672 11.57498 70.855367 9.106546 69.62115 C 5.82994 68.061907 3.765591 65.404607 2.909106 61.649249 C 2.755378 60.718095 2.68071 59.813296 2.68071 58.930457 C 2.68071 58.377036 2.733417 57.582042 2.834438 56.549867 C 3.084795 54.432811 3.488881 52.544151 4.042302 50.883888 C 4.723098 48.815146 5.504915 47.088999 6.383362 45.705446 C 7.670286 43.540076 9.418394 41.651416 11.636471 40.039467 C 11.838514 39.938445 11.939535 39.850601 11.939535 39.771541 C 11.939535 39.696873 11.838514 39.582675 11.636471 39.433339 C 10.604297 38.704228 9.835656 38.13763 9.330549 37.733545 C 8.149039 36.749685 7.138826 35.493506 6.308694 33.956225 C 5.526876 32.594633 5.135968 31.17155 5.135968 29.686976 C 5.135968 29.28289 5.188674 28.716292 5.289696 27.987182 C 6.119828 23.902406 7.793268 20.454504 10.314409 17.630299 C 11.825337 15.970035 13.867725 15.139903 16.432789 15.139903 C 17.166291 15.139903 18.347802 15.289239 19.986104 15.592303 C 22.353517 16.071056 24.268531 16.751852 25.731144 17.630299 C 27.013676 18.390155 28.023889 19.233463 28.753 20.164617 C 29.407442 21.047455 29.732467 21.978608 29.732467 22.958076 C 29.732467 23.616911 29.534817 24.359198 29.130732 25.18933 C 28.599271 26.221505 27.856984 27.152658 26.899478 27.987182 C 26.218682 28.615271 25.362196 28.931512 24.330022 28.931512 C 22.893762 28.931512 21.584877 28.461543 20.403366 27.53039 C 19.972928 27.205365 19.810415 26.86277 19.911436 26.511392 C 19.959751 26.208328 20.275992 26.058992 20.855766 26.058992 L 21.005102 26.058992 C 21.409188 26.058992 21.800096 25.817419 22.177828 25.338666 C 22.783956 24.534887 23.210003 23.7926 23.464752 23.111804 C 23.640441 22.707719 23.728286 22.290457 23.728286 21.86441 C 23.728286 21.513032 23.701933 21.258282 23.653618 21.108946 C 23.473537 20.226108 22.959645 19.786885 22.10316 19.786885 C 21.725428 19.685863 21.33452 19.685863 20.930434 19.786885 C 19.89826 19.786885 19.041774 20.11191 18.360978 20.766352 C 17.280489 21.851234 16.459142 22.936115 15.905721 24.016604 C 15.022882 25.527532 14.350871 26.875947 13.885294 28.06185 C 13.419717 29.24336 13.186929 30.503931 13.186929 31.839169 C 13.186929 33.956225 14.118082 35.743864 15.980389 37.202085 C 16.283453 37.456834 16.700715 37.658877 17.227783 37.808213 C 17.579161 37.909234 18.299487 38.084923 19.379976 38.339673 C 20.614194 38.616384 21.725428 39.029253 22.704896 39.582675 C 23.108981 39.837424 23.526243 40.228333 23.95229 40.755401 C 24.106018 40.909129 24.180686 41.084818 24.180686 41.286861 C 24.180686 41.585532 24.004997 41.853459 23.653618 42.077462 C 23.021137 42.380526 22.507246 42.529862 22.10316 42.529862 C 21.1193 42.481548 20.038811 42.872456 18.852908 43.702588 C 16.889581 44.989512 15.224925 46.812289 13.867725 49.179702 C 12.02738 52.48266 11.109403 55.970092 11.109403 59.646391 C 11.109403 61.034336 11.307054 62.268553 11.711139 63.349042 C 12.343621 65.215741 13.498778 66.55098 15.189787 67.354758 C 15.567519 67.583154 16.107763 67.846688 16.814913 68.149752 C 17.240959 68.400109 17.833911 68.474777 18.589375 68.373756 C 19.371192 68.171713 20.249638 67.807158 21.233498 67.28009 C 24.330022 65.492452 26.811633 63.349042 28.678332 60.858647 L 30.527461 58.174993 L 34.006109 52.882353 C 35.240326 50.945379 36.057282 49.434451 36.461367 48.34957 C 36.584349 48.072859 36.751254 47.883993 36.953297 47.782972 C 37.35299 47.681951 37.656054 47.633636 37.858097 47.633636 C 38.284143 47.633636 38.653091 47.708304 38.951762 47.85764 C 39.355848 48.011368 39.483223 48.301255 39.329494 48.727302 L 37.480365 52.504621 L 35.099775 57.076935 L 33.474649 60.177851 C 32.995896 61.109004 32.139411 62.444243 30.905193 64.183566 C 29.52164 66.094187 27.606627 67.833511 25.164546 69.397146 C 23.073844 70.780699 20.80306 71.474672 18.360978 71.474672 Z M 58.031619 47.176844 C 58.462057 47.176844 58.751945 47.291042 58.901281 47.519438 C 59.050616 47.747834 59.07697 48.046506 58.975949 48.424238 C 58.145817 51.924847 57.289331 54.608501 56.406493 56.475199 C 55.954093 57.507374 55.312827 59.044655 54.478303 61.082651 C 54.025903 62.2422 53.617425 63.182138 53.25287 63.898071 C 52.888315 64.614005 52.42713 65.316762 51.873709 65.993166 C 50.310075 67.785197 48.597104 68.918393 46.734798 69.397146 C 45.979334 69.594796 45.109672 69.695818 44.125812 69.695818 C 42.742259 69.695818 41.345529 69.40593 39.935622 68.830548 C 39.000077 68.426463 38.235829 67.785197 37.629701 66.902358 C 36.698547 65.466098 36.052889 63.590615 35.701511 61.271517 C 35.600489 60.388678 35.552175 59.044655 35.552175 57.230663 L 35.552175 54.507479 C 35.552175 52.241087 35.574136 50.541294 35.626843 49.408098 C 35.626843 47.190021 35.675157 43.966122 35.776179 39.736403 L 35.701511 39.736403 L 35.626843 35.959083 C 35.626843 32.357453 35.675157 26.941831 35.776179 19.712217 L 35.776179 19.255425 C 35.776179 18.67565 36.052889 18.26278 36.610703 18.012423 C 36.808353 17.911401 37.177301 17.81038 37.704369 17.709359 C 39.566675 17.53367 41.270861 17.911401 42.80375 18.842555 C 43.638274 19.369623 44.051144 20.125086 44.051144 21.108946 C 44.051144 26.045815 44.077497 29.761644 44.125812 32.256431 L 44.204872 43.061322 C 44.204872 45.226693 44.152165 48.375923 44.051144 52.504621 L 44.051144 58.249661 C 44.152165 60.138321 44.354208 61.737093 44.657272 63.045978 C 44.907629 63.902464 45.526934 64.750164 46.506402 65.580296 C 46.783112 65.628611 46.97637 65.60665 47.073 65.505628 C 47.477085 65.101543 47.679128 64.8995 47.679128 64.8995 C 48.307217 64.069368 48.750832 63.450064 49.001189 63.045978 L 54.025903 53.036081 C 54.478303 52.078575 55.123961 50.615962 55.954093 48.652634 C 56.257157 47.822502 56.850108 47.330572 57.728555 47.176844 Z M 81.266526 48.424238 C 81.266526 46.359889 81.415862 43.62792 81.718926 40.228333 C 82.02199 36.850706 82.715963 33.59167 83.796452 30.44244 C 84.828627 27.416192 86.040883 25.000464 87.424436 23.186472 C 90.621981 18.904046 94.781424 16.071056 99.893983 14.687503 C 102.208689 14.055022 104.554141 13.738781 106.921554 13.738781 C 112.236155 13.738781 116.957804 15.161864 121.090895 18.012423 C 124.038082 20.024065 126.00141 22.633051 126.98527 25.830596 C 127.714381 28.351737 128.078936 30.490754 128.078936 32.256431 C 128.078936 37.82139 126.089255 42.103816 122.109892 45.099318 L 121.011834 45.854782 C 120.862498 46.00851 120.862498 46.131493 121.011834 46.232514 L 121.389566 46.535578 C 122.650137 47.36571 123.682311 48.34957 124.490482 49.482766 C 124.767193 49.812183 124.956059 49.974696 125.05708 49.974696 C 125.158101 49.974696 125.259123 49.930773 125.360144 49.842929 C 125.461165 49.755084 125.562187 49.684808 125.663208 49.636494 L 128.004268 48.503298 C 129.185778 47.822502 130.472702 47.277865 131.856255 46.878172 C 132.009984 46.825465 132.212026 46.799112 132.462383 46.799112 C 132.840115 46.799112 133.231024 46.878172 133.635109 47.027508 C 134.034802 47.128529 134.236845 47.304219 134.236845 47.558968 L 134.236845 47.708304 C 134.236845 47.85764 134.175354 47.971838 134.047979 48.046506 C 133.924997 48.125566 133.83276 48.200234 133.784445 48.274902 L 131.930923 49.33343 L 126.607538 52.126889 C 126.379142 52.227911 126.238591 52.315755 126.190276 52.394816 C 126.137569 52.469483 126.163923 52.605643 126.264944 52.807685 L 126.756874 54.586539 C 126.958917 55.262943 127.059938 56.071114 127.059938 57.002267 C 127.059938 57.93342 126.958917 58.728414 126.756874 59.382857 C 126.177099 61.548227 125.562187 63.287551 124.903352 64.596436 C 123.291403 67.846688 120.660456 69.985705 117.010511 71.022272 C 115.596212 71.37365 114.072108 71.54934 112.438197 71.54934 C 111.406023 71.54934 110.624206 71.522986 110.092745 71.474672 C 108.911235 71.320944 107.677018 70.908074 106.390094 70.227278 C 105.006541 69.498167 104.163232 68.386933 103.860168 66.902358 C 103.7855 66.599294 103.644949 66.572941 103.442906 66.82769 C 102.160374 67.960886 100.284891 68.839332 97.816457 69.471814 C 96.981933 69.673857 96.050779 69.774878 95.018605 69.774878 C 93.00257 69.774878 91.012889 69.309301 89.049562 68.373756 C 87.661616 67.697352 86.506459 66.586117 85.570914 65.048836 C 83.708607 62.154355 82.527097 59.1325 82.02199 55.983269 C 81.516884 52.48266 81.266526 49.961519 81.266526 48.424238 Z M 97.965793 33.161231 L 97.816457 30.288711 L 97.891125 30.288711 C 97.891125 28.650409 97.917478 27.416192 97.965793 26.58606 C 97.965793 25.856949 98.172228 25.338666 98.58949 25.039994 C 99.006752 24.73693 99.639233 24.583202 100.495718 24.583202 C 101.655268 24.583202 102.80164 24.859913 103.934836 25.417726 C 105.621453 26.247858 106.368133 27.495252 106.16609 29.155516 C 106.113383 29.607916 106.091422 30.253574 106.091422 31.083705 C 106.091422 31.738148 106.113383 32.533142 106.16609 33.464295 C 106.214405 34.395448 106.267111 35.102598 106.315426 35.581351 L 106.61849 40.680733 C 106.719511 41.611886 106.781002 42.398095 106.807356 43.043753 C 106.833709 43.685019 106.846886 44.234048 106.846886 44.686448 C 106.8952 44.888491 106.952299 45.007081 107.013791 45.042219 C 107.079674 45.081749 107.211441 45.037827 107.413484 44.910452 C 108.594994 44.308716 109.855565 43.952945 111.190803 43.851924 C 111.972621 43.851924 112.688555 43.566429 113.342997 42.986654 L 114.441055 42.231191 C 116.351676 40.816892 117.752798 38.906271 118.631245 36.486151 C 119.391101 34.522823 119.768833 32.546319 119.768833 30.552245 C 119.768833 30.025178 119.716126 29.296067 119.615105 28.364914 C 119.364747 26.348879 118.934309 24.622732 118.332573 23.186472 C 117.247691 20.568702 115.508368 18.943576 113.118993 18.311095 C 111.981405 18.109052 111.116136 18.012423 110.510007 18.012423 C 108.594994 17.959716 106.504292 18.210073 104.2379 18.767887 C 101.971508 19.294955 99.388876 20.480857 96.494395 22.31681 C 94.223611 23.779424 92.286637 25.870126 90.674687 28.588918 C 88.685006 32.168587 87.47275 36.472974 87.046704 41.510864 C 86.945682 43.575214 86.897368 45.125671 86.897368 46.157846 C 86.897368 47.44477 86.919329 48.402277 86.972036 49.030366 C 87.121372 51.296758 87.384906 53.286439 87.762638 54.999409 C 88.421472 58.047618 89.677651 61.034336 91.544349 63.95517 C 92.220753 64.886324 92.840058 65.56712 93.393479 65.993166 C 93.648229 66.247916 93.911762 66.370898 94.188473 66.370898 C 94.390516 66.370898 94.640873 66.29623 94.943937 66.146894 C 95.523712 65.817477 96.037603 65.163034 96.494395 64.183566 C 97.627591 61.965489 98.242503 59.281835 98.343525 56.132605 C 98.396231 53.361107 98.418193 49.170917 98.418193 43.553252 C 98.418193 42.521078 98.369878 40.97062 98.268857 38.906271 C 98.167835 36.411483 98.066814 34.49647 97.965793 33.161231 Z M 107.413484 49.258762 C 107.211441 49.258762 107.079674 49.280723 107.013791 49.33343 C 106.952299 49.381744 106.921554 49.509119 106.921554 49.711162 L 106.921554 54.507479 C 106.921554 57.054974 106.693158 59.281835 106.240758 61.196849 L 106.240758 61.802977 C 106.390094 61.802977 106.491115 61.776623 106.543822 61.723916 L 108.392952 60.024123 C 109.578854 58.943634 111.568535 57.568865 114.361995 55.908601 C 115.143812 55.403495 116.351676 54.683168 117.989979 53.752015 C 118.266689 53.602679 118.380887 53.400637 118.332573 53.150279 C 117.85382 51.336288 117.120317 49.935166 116.140849 48.955698 C 115.938806 48.700948 115.609389 48.599927 115.156989 48.652634 C 113.193661 49.056719 110.611029 49.258762 107.413484 49.258762 Z M 109.03861 66.449958 C 109.03861 67.227383 109.337282 67.820335 109.94341 68.22442 C 110.171806 68.325441 110.307965 68.373756 110.360672 68.373756 C 110.408986 68.373756 110.659343 68.299088 111.116136 68.149752 L 112.438197 67.429426 L 114.665059 65.580296 C 115.398562 64.974168 115.987121 64.183566 116.443913 63.199706 C 117.221338 61.688779 117.875781 59.962631 118.407241 58.021265 L 118.407241 57.379999 C 118.407241 57.230663 118.293043 57.177956 118.064647 57.230663 L 117.765975 57.379999 C 114.867102 59.242305 112.750046 60.920138 111.414807 62.404712 C 110.813071 63.138215 110.193767 63.968347 109.565678 64.8995 C 109.416342 65.101543 109.302144 65.369469 109.227476 65.712063 C 109.148416 66.050265 109.086924 66.29623 109.03861 66.449958 Z M 158.341415 48.577966 C 157.76164 49.509119 157.094021 50.304113 156.338557 50.958556 C 154.875944 52.342109 153.303525 53.400637 151.616907 54.129747 C 151.085447 54.33179 150.79556 54.722699 150.747246 55.302473 C 150.444182 56.787048 149.877584 58.412173 149.047452 60.177851 C 148.41497 61.460383 147.672683 62.619932 146.816198 63.652106 C 145.784023 64.785302 144.536629 65.527589 143.074016 65.88336 C 141.892506 66.160071 140.785663 66.29623 139.749096 66.29623 C 138.993633 66.29623 138.176677 66.221562 137.293839 66.072226 C 135.431532 65.694494 134.008449 64.609613 133.024589 62.821974 C 132.343793 61.737093 131.777195 60.212989 131.324795 58.249661 C 130.771374 56.031584 130.494663 53.549973 130.494663 50.804828 C 130.494663 48.990836 130.819689 46.601461 131.478523 43.62792 C 132.053906 41.286861 133.288123 39.143451 135.181175 37.202085 C 136.21335 36.16991 137.711101 35.656019 139.674428 35.656019 C 141.48842 35.656019 143.276059 36.095242 145.041736 36.978081 L 146.174932 37.658877 C 147.536524 38.59003 148.265634 39.898915 148.366656 41.585532 C 148.366656 42.064286 148.542345 42.582569 148.893724 43.13599 C 150.079626 44.699625 150.79556 46.561931 151.05031 48.727302 L 151.274313 51.182559 C 151.274313 51.511977 151.414865 51.586645 151.691575 51.410956 C 152.548061 50.905849 153.277171 50.409527 153.883299 49.917597 C 154.485035 49.425667 154.963788 48.8415 155.319559 48.160704 C 155.618231 47.655597 156.162868 47.40524 156.940293 47.40524 C 157.572774 47.40524 158.011997 47.506261 158.266747 47.708304 C 158.517104 47.958661 158.543457 48.248548 158.341415 48.577966 Z M 144.778202 54.129747 C 143.741635 53.730054 142.951034 53.163456 142.397612 52.429953 C 141.462067 51.296758 140.895469 50.216268 140.693426 49.179702 C 140.54409 48.450591 140.469422 47.734657 140.469422 47.027508 C 140.469422 45.367244 140.961352 43.966122 141.94082 42.832926 C 142.142863 42.630884 142.243884 42.468371 142.243884 42.340996 C 142.243884 42.218014 142.169216 42.015971 142.01988 41.739261 C 141.866152 41.537218 141.677286 41.537218 141.453282 41.739261 C 140.847154 42.718728 140.416716 43.601567 140.166358 44.383384 C 139.384541 46.702483 138.993633 48.867853 138.993633 50.883888 C 138.993633 53.980411 139.459209 56.975914 140.394755 59.874787 C 140.495776 60.177851 140.618758 60.454561 140.772486 60.704919 C 140.921822 60.955276 141.049197 61.245163 141.150218 61.574581 C 141.198533 61.723916 141.325908 61.75027 141.52795 61.649249 L 141.791484 61.425245 C 143.478101 59.356503 144.611297 57.142818 145.191072 54.775405 C 145.243779 54.547009 145.256955 54.406458 145.230602 54.358143 C 145.204249 54.305436 145.054913 54.230769 144.778202 54.129747 Z M 146.100264 49.105034 C 146.100264 48.024545 145.920182 47.014331 145.568804 46.083178 L 145.3448 45.933842 C 145.243779 45.933842 145.191072 46.00851 145.191072 46.157846 C 145.015383 46.689306 144.927538 47.255904 144.927538 47.85764 C 144.927538 48.8415 145.164719 49.847321 145.643472 50.883888 L 145.946536 51.182559 C 146.047557 50.150385 146.100264 49.456412 146.100264 49.105034 Z M 185.502978 47.782972 L 185.090108 49.258762 C 184.637708 50.642315 183.842714 52.781332 182.709518 55.680205 L 182.10339 57.379999 C 181.37428 59.242305 180.491441 61.056297 179.459267 62.821974 L 178.365601 64.824832 C 177.381741 66.559764 176.397881 67.996024 175.418413 69.12922 C 174.333532 70.341476 173.226689 71.070586 172.093493 71.320944 C 170.960298 71.522986 170.112597 71.624008 169.559176 71.624008 C 167.446512 71.624008 165.606167 70.956388 164.042532 69.62115 C 163.440796 69.094082 163.036711 68.426463 162.834668 67.618292 C 162.355915 65.958028 162.118734 64.319726 162.118734 62.707776 C 162.167049 59.887963 162.408622 57.151603 162.834668 54.507479 C 162.984004 53.123926 163.085025 52.20595 163.137732 51.749157 C 163.339775 49.583787 163.489111 48.235372 163.590132 47.708304 L 163.590132 46.232514 C 163.590132 45.881135 163.541818 45.665916 163.440796 45.591248 C 163.339775 45.51658 163.049888 45.402382 162.571134 45.253046 C 162.417406 45.200339 161.973791 45.055396 161.227111 44.818215 C 160.484824 44.576642 159.817205 44.308716 159.228646 44.005652 C 158.635694 43.702588 158.099842 43.364386 157.621089 42.986654 L 156.145299 41.739261 C 155.192184 40.983797 154.761746 39.824247 154.862767 38.260613 C 155.06481 35.792178 155.34152 33.727829 155.692899 32.067565 C 155.947648 31.110059 156.334165 30.18769 156.865625 29.309244 C 157.370732 28.47472 158.187687 28.06185 159.320883 28.06185 C 160.629768 28.06185 161.802494 28.400052 162.834668 29.080848 C 163.691153 29.686976 164.121592 30.354595 164.121592 31.083705 C 164.121592 32.216901 164.042532 33.323744 163.893196 34.408625 C 163.590132 36.675017 163.339775 38.374811 163.137732 39.508007 C 163.085025 39.762756 163.063064 40.175626 163.063064 40.755401 C 163.063064 41.260507 163.313422 41.585532 163.818528 41.739261 C 163.967864 41.813928 164.187476 41.87542 164.477363 41.928126 C 164.76725 41.976441 165.087883 42.077462 165.443654 42.231191 C 165.869701 42.380526 166.330885 42.556216 166.822815 42.758258 C 167.310353 42.960301 167.833028 43.162344 168.390842 43.364386 C 168.491863 43.439054 168.904733 43.676235 169.633843 44.08032 C 171.171125 45.011473 171.939765 46.373065 171.939765 48.160704 C 171.939765 49.192878 171.891451 50.348035 171.790429 51.61739 C 171.689408 52.891138 171.562033 53.993588 171.412697 54.924741 C 171.311676 55.530869 171.223831 56.273156 171.149164 57.151603 C 171.070103 58.034442 171.008612 58.702061 170.960298 59.154461 C 170.859276 60.617074 170.745078 61.701955 170.617703 62.404712 C 170.569389 62.782444 170.586958 63.217275 170.674802 63.709205 C 170.762647 64.201135 170.806569 64.548122 170.806569 64.750164 C 170.960298 65.3519 171.034966 65.971205 171.034966 66.599294 C 171.034966 66.700315 171.061319 66.801337 171.109633 66.902358 C 171.157948 67.003379 171.210655 67.104401 171.258969 67.205422 L 171.865097 66.74863 C 172.115455 66.498273 172.633738 65.857007 173.415555 64.824832 C 174.873776 62.857112 175.989403 61.236379 176.758044 59.949455 C 177.526685 58.666923 178.326071 57.063758 179.156203 55.153137 C 180.895527 51.020047 181.927701 48.564789 182.257118 47.782972 C 182.55579 47.080215 183.12678 46.724444 183.956912 46.724444 C 184.409312 46.724444 184.787044 46.799112 185.090108 46.95284 C 185.265797 47.001155 185.393172 47.115353 185.46784 47.291042 C 185.542508 47.466731 185.555685 47.633636 185.502978 47.782972 Z M 214.368727 47.330572 C 214.623477 47.330572 214.821127 47.418417 214.974855 47.594106 C 215.124191 47.769795 215.176898 48.024545 215.124191 48.34957 L 214.821127 49.482766 L 213.499065 55.074077 C 212.844623 58.223308 212.054021 60.617074 211.118475 62.255377 L 210.174146 63.801442 C 209.04095 65.56712 207.314802 66.397251 205.000096 66.29623 C 202.680998 66.29623 200.932889 65.39143 199.746987 63.577438 C 199.369255 63.125039 199.105721 62.681423 198.951993 62.255377 C 198.754342 61.802977 198.451278 60.819117 198.047193 59.308189 C 197.897857 59.936278 197.757305 60.327187 197.629931 60.476523 L 196.650463 62.707776 C 195.767624 64.521768 194.24352 65.641787 192.078149 66.072226 C 191.445668 66.221562 190.830755 66.29623 190.224627 66.29623 C 189.043117 66.29623 187.835253 66.006343 186.601036 65.426568 C 184.835359 64.596436 183.640672 63.414926 183.00819 61.877645 C 182.353748 60.265695 181.949662 58.513195 181.800326 56.624535 C 181.800326 56.246803 181.752012 55.754873 181.65099 55.153137 C 181.470909 50.615962 182.265903 46.46091 184.03158 42.68359 C 184.809005 40.97062 185.691844 39.683696 186.675704 38.827211 C 188.410636 37.215261 190.365179 36.38513 192.530549 36.336815 C 194.445562 36.336815 196.097042 36.626702 197.480595 37.202085 C 197.810012 37.303106 197.998878 37.355813 198.047193 37.355813 C 198.249235 37.404127 198.350257 37.355813 198.350257 37.202085 C 198.398571 37.105456 198.424925 36.964904 198.424925 36.789215 L 198.727989 27.833454 L 198.877325 20.766352 C 198.877325 20.568702 198.903678 20.300776 198.951993 19.975751 C 199.004699 19.646333 199.053014 19.343269 199.105721 19.066559 C 199.28141 18.311095 199.544944 17.775242 199.900715 17.463394 C 200.252093 17.147153 200.792338 16.989033 201.521448 16.989033 C 202.909394 17.04174 204.218279 17.432648 205.452496 18.161759 C 206.638399 18.890869 207.226958 20.002104 207.226958 21.486678 C 207.226958 25.365019 207.204997 28.250716 207.15229 30.139376 C 207.103975 33.187585 206.950247 36.257755 206.69989 39.358671 C 206.598869 41.018934 206.497847 42.305858 206.396826 43.210658 L 206.093762 47.330572 C 206.045447 48.160704 206.019094 49.421274 206.019094 51.107892 C 206.019094 53.224947 206.071801 54.797366 206.16843 55.829541 C 206.322158 57.44149 206.572515 58.816259 206.928286 59.949455 L 207.306018 60.933315 C 207.380686 61.034336 207.455354 61.082651 207.530022 61.082651 C 207.60469 61.082651 207.670573 61.056297 207.718888 61.007983 C 207.771595 60.906961 207.846263 60.792763 207.947284 60.665389 C 208.048305 60.542406 208.122973 60.379893 208.171288 60.177851 C 208.527059 59.497055 209.018989 58.438527 209.647078 57.002267 C 210.428895 54.885211 211.219497 52.517798 212.027667 49.900028 L 212.668933 48.274902 C 212.971997 47.646813 213.485889 47.330572 214.219391 47.330572 Z M 197.897857 42.231191 C 197.897857 41.69973 197.60797 41.234154 197.028195 40.830068 L 196.650463 40.527004 L 196.193671 40.377669 C 195.767624 40.47869 195.477737 40.579711 195.328401 40.680733 C 194.296227 41.335175 193.387035 42.420056 192.605217 43.930984 C 190.971307 47.080215 190.14996 50.501764 190.14996 54.208807 C 190.14996 55.289296 190.224627 56.374178 190.378356 57.454667 C 190.580398 58.864573 190.830755 59.874787 191.13382 60.476523 L 191.472021 60.858647 C 191.674064 60.656604 191.775085 60.555583 191.775085 60.555583 L 192.679885 58.776729 C 193.360681 57.44149 194.094184 55.566007 194.871609 53.150279 C 196.206848 49.522296 197.190708 46.056825 197.818797 42.758258 Z M 211.873939 31.312102 C 211.873939 31.110059 211.913469 30.763073 211.988137 30.271143 C 212.062805 29.779213 212.15065 29.331205 212.251671 28.931512 C 212.453714 28.096988 213.046665 27.556743 214.026133 27.306386 C 214.228176 27.227326 214.544416 27.192188 214.970463 27.192188 C 215.47557 27.192188 216.24421 27.306386 217.276385 27.53039 C 218.058202 27.684118 218.787313 28.009143 219.468109 28.51425 C 220.122551 28.993003 220.451969 29.634269 220.451969 30.44244 C 220.451969 30.868486 220.412439 31.316494 220.337771 31.78207 C 220.263103 32.247647 220.197219 32.634163 220.148905 32.932835 C 220.096198 33.288606 219.973215 33.653161 219.771173 34.030893 C 219.56913 34.637021 219.151868 35.014753 218.523779 35.164089 C 217.741961 35.339778 217.329092 35.427623 217.276385 35.427623 C 215.739104 35.300248 214.557593 35.014753 213.727461 34.557961 C 212.392223 33.877165 211.772918 32.796676 211.873939 31.312102 Z M 231.217329 48.160704 L 230.993326 49.105034 L 228.195474 58.324329 C 227.89241 59.255482 227.501501 60.076829 227.02714 60.779587 C 225.538173 63.476417 224.694865 65.000522 224.492822 65.3519 C 224.290779 65.703279 224.022853 66.089795 223.680259 66.507057 C 223.342057 66.919927 223.069739 67.227383 222.867696 67.429426 C 221.98925 68.4616 220.715503 69.067729 219.050847 69.243418 C 216.938183 69.344439 215.084661 68.878863 213.499065 67.846688 C 212.616227 67.315228 212.049629 66.485096 211.799271 65.3519 C 211.544522 63.537908 211.421539 61.912782 211.421539 60.476523 C 211.368833 59.598076 211.346872 58.311152 211.346872 56.624535 C 211.346872 54.661207 211.395186 52.473876 211.496207 50.071325 C 211.597229 47.664382 211.671897 45.96898 211.724603 44.989512 L 211.873939 42.305858 L 211.873939 42.15213 C 211.922254 41.475727 212.075982 40.996973 212.326339 40.71587 C 212.581089 40.43916 213.046665 40.276647 213.727461 40.228333 C 213.977819 40.149273 214.390688 40.114135 214.970463 40.114135 C 216.257387 40.114135 217.416936 40.377669 218.449111 40.909129 C 218.550132 40.957443 218.914687 41.159486 219.542777 41.510864 C 220.047883 41.888596 220.276279 42.455194 220.223573 43.210658 L 219.995176 48.577966 L 219.920509 51.107892 L 219.995176 51.107892 L 219.920509 53.374283 C 219.819487 55.342003 219.771173 56.800224 219.771173 57.757731 C 219.771173 58.741591 219.819487 60.164674 219.920509 62.02698 L 219.995176 63.95517 C 219.995176 64.056192 220.074237 64.183566 220.223573 64.332902 L 220.526637 64.183566 L 220.829701 63.801442 L 222.454826 61.007983 L 223.473824 59.308189 C 223.776888 58.702061 224.022853 58.166208 224.211719 57.700632 C 224.400585 57.235055 224.545529 56.852931 224.64655 56.549867 L 227.101808 50.958556 C 227.277497 50.602785 227.44001 50.194307 227.593738 49.728731 C 227.743074 49.263154 227.97147 48.714125 228.270142 48.086036 C 228.524891 47.330572 229.038782 46.95284 229.8206 46.95284 C 230.070957 46.95284 230.360844 47.027508 230.690262 47.176844 C 231.094347 47.431593 231.270036 47.756618 231.217329 48.160704 Z M 249.844786 47.176844 C 250.275224 47.176844 250.56072 47.291042 250.714448 47.519438 C 250.863784 47.747834 250.890137 48.046506 250.789116 48.424238 C 249.958984 51.924847 249.102498 54.608501 248.21966 56.475199 C 247.76726 57.507374 247.125994 59.044655 246.29147 61.082651 C 245.83907 62.2422 245.430592 63.182138 245.066037 63.898071 C 244.701482 64.614005 244.240298 65.316762 243.686876 65.993166 C 242.123242 67.785197 240.410271 68.918393 238.547965 69.397146 C 237.792501 69.594796 236.922839 69.695818 235.938979 69.695818 C 234.555426 69.695818 233.158696 69.40593 231.74879 68.830548 C 230.813244 68.426463 230.044603 67.785197 229.442868 66.902358 C 228.511714 65.466098 227.866056 63.590615 227.514678 61.271517 C 227.413656 60.388678 227.365342 59.044655 227.365342 57.230663 L 227.365342 54.507479 C 227.365342 52.241087 227.387303 50.541294 227.44001 49.408098 C 227.44001 47.190021 227.488324 43.966122 227.589346 39.736403 L 227.514678 39.736403 L 227.44001 35.959083 C 227.44001 32.357453 227.488324 26.941831 227.589346 19.712217 L 227.589346 19.255425 C 227.589346 18.67565 227.866056 18.26278 228.42387 18.012423 C 228.62152 17.911401 228.990468 17.81038 229.517536 17.709359 C 231.379842 17.53367 233.084028 17.911401 234.616917 18.842555 C 235.451441 19.369623 235.864311 20.125086 235.864311 21.108946 C 235.864311 26.045815 235.890664 29.761644 235.938979 32.256431 L 236.018039 43.061322 C 236.018039 45.226693 235.965332 48.375923 235.864311 52.504621 L 235.864311 58.249661 C 235.965332 60.138321 236.167375 61.737093 236.470439 63.045978 C 236.720796 63.902464 237.340101 64.750164 238.319569 65.580296 C 238.596279 65.628611 238.785145 65.60665 238.886167 65.505628 C 239.290252 65.101543 239.492295 64.8995 239.492295 64.8995 C 240.120384 64.069368 240.563999 63.450064 240.814357 63.045978 L 245.83907 53.036081 C 246.29147 52.078575 246.937128 50.615962 247.76726 48.652634 C 248.070324 47.822502 248.663275 47.330572 249.541722 47.176844 Z M 269.49124 47.176844 C 269.917286 47.176844 270.207174 47.291042 270.360902 47.519438 C 270.510238 47.747834 270.536591 48.046506 270.43557 48.424238 C 269.605438 51.924847 268.748953 54.608501 267.866114 56.475199 C 267.413714 57.507374 266.772448 59.044655 265.937924 61.082651 C 265.485524 62.2422 265.077047 63.182138 264.712491 63.898071 C 264.347936 64.614005 263.886752 65.316762 263.33333 65.993166 C 261.769696 67.785197 260.056725 68.918393 258.194419 69.397146 C 257.438955 69.594796 256.569293 69.695818 255.585433 69.695818 C 254.20188 69.695818 252.80515 69.40593 251.390851 68.830548 C 250.459698 68.426463 249.691058 67.785197 249.089322 66.902358 C 248.158169 65.466098 247.51251 63.590615 247.161132 61.271517 C 247.060111 60.388678 247.011796 59.044655 247.011796 57.230663 L 247.011796 54.507479 C 247.011796 52.241087 247.033757 50.541294 247.086464 49.408098 C 247.086464 47.190021 247.134778 43.966122 247.2358 39.736403 L 247.161132 39.736403 L 247.086464 35.959083 C 247.086464 32.357453 247.134778 26.941831 247.2358 19.712217 L 247.2358 19.255425 C 247.2358 18.67565 247.51251 18.26278 248.065932 18.012423 C 248.267974 17.911401 248.63253 17.81038 249.16399 17.709359 C 251.026296 17.53367 252.72609 17.911401 254.263371 18.842555 C 255.093503 19.369623 255.510765 20.125086 255.510765 21.108946 C 255.510765 26.045815 255.537118 29.761644 255.585433 32.256431 L 255.664493 43.061322 C 255.664493 45.226693 255.611786 48.375923 255.510765 52.504621 L 255.510765 58.249661 C 255.611786 60.138321 255.813829 61.737093 256.116893 63.045978 C 256.36725 63.902464 256.986555 64.750164 257.966023 65.580296 C 258.242733 65.628611 258.431599 65.60665 258.532621 65.505628 C 258.936706 65.101543 259.138749 64.8995 259.138749 64.8995 C 259.766838 64.069368 260.210453 63.450064 260.460811 63.045978 L 265.485524 53.036081 C 265.937924 52.078575 266.583582 50.615962 267.413714 48.652634 C 267.716778 47.822502 268.305337 47.330572 269.188176 47.176844 Z M 294.500609 48.577966 C 293.920835 49.509119 293.253215 50.304113 292.497751 50.958556 C 291.03953 52.342109 289.462719 53.400637 287.776102 54.129747 C 287.249034 54.33179 286.959147 54.722699 286.90644 55.302473 C 286.603376 56.787048 286.036778 58.412173 285.206646 60.177851 C 284.578557 61.460383 283.83627 62.619932 282.979784 63.652106 C 281.94761 64.785302 280.700216 65.527589 279.237603 65.88336 C 278.056092 66.160071 276.944858 66.29623 275.912683 66.29623 C 275.157219 66.29623 274.340264 66.221562 273.457425 66.072226 C 271.595119 65.694494 270.172036 64.609613 269.188176 62.821974 C 268.50738 61.737093 267.940782 60.212989 267.488382 58.249661 C 266.934961 56.031584 266.653858 53.549973 266.653858 50.804828 C 266.653858 48.990836 266.983275 46.601461 267.637718 43.62792 C 268.217492 41.286861 269.45171 39.143451 271.340369 37.202085 C 272.372544 36.16991 273.874687 35.656019 275.838015 35.656019 C 277.652007 35.656019 279.439645 36.095242 281.20093 36.978081 L 282.334126 37.658877 C 283.695718 38.59003 284.424829 39.898915 284.52585 41.585532 C 284.52585 42.064286 284.705932 42.582569 285.05731 43.13599 C 286.238821 44.699625 286.959147 46.561931 287.209504 48.727302 L 287.4379 51.182559 C 287.4379 51.511977 287.574059 51.586645 287.85077 51.410956 C 288.707255 50.905849 289.440758 50.409527 290.042494 49.917597 C 290.648622 49.425667 291.127375 48.8415 291.478754 48.160704 C 291.781818 47.655597 292.322062 47.40524 293.103879 47.40524 C 293.731969 47.40524 294.175584 47.506261 294.425941 47.708304 C 294.680691 47.958661 294.702652 48.248548 294.500609 48.577966 Z M 280.937397 54.129747 C 279.905222 53.730054 279.110228 53.163456 278.556807 52.429953 C 277.625654 51.296758 277.059056 50.216268 276.857013 49.179702 C 276.707677 48.450591 276.628617 47.734657 276.628617 47.027508 C 276.628617 45.367244 277.120547 43.966122 278.104407 42.832926 C 278.30645 42.630884 278.407471 42.468371 278.407471 42.340996 C 278.407471 42.218014 278.332803 42.015971 278.179075 41.739261 C 278.029739 41.537218 277.840873 41.537218 277.612477 41.739261 C 277.010741 42.718728 276.580302 43.601567 276.329945 44.383384 C 275.548128 46.702483 275.157219 48.867853 275.157219 50.883888 C 275.157219 53.980411 275.622796 56.975914 276.553949 59.874787 C 276.65497 60.177851 276.782345 60.454561 276.931681 60.704919 C 277.085409 60.955276 277.208392 61.245163 277.309413 61.574581 C 277.36212 61.723916 277.485102 61.75027 277.687145 61.649249 L 277.955071 61.425245 C 279.641688 59.356503 280.774884 57.142818 281.354659 54.775405 C 281.402973 54.547009 281.41615 54.406458 281.389796 54.358143 C 281.367835 54.305436 281.214107 54.230769 280.937397 54.129747 Z M 282.259458 49.105034 C 282.259458 48.024545 282.083769 47.014331 281.732391 46.083178 L 281.503995 45.933842 C 281.402973 45.933842 281.354659 46.00851 281.354659 46.157846 C 281.178969 46.689306 281.091125 47.255904 281.091125 47.85764 C 281.091125 48.8415 281.328305 49.847321 281.807059 50.883888 L 282.110123 51.182559 C 282.211144 50.150385 282.259458 49.456412 282.259458 49.105034 Z M 282.259458 49.105034 " stroke="#000000" stroke-width="17.411715" stroke-opacity="1" stroke-miterlimit="4"/><g fill="#ffffff" fill-opacity="1"><g transform="translate(59.364461, 201.731463)"><g><path d="M 12.46875 1.3125 C 9.707031 1.3125 7.234375 0.757812 5.046875 -0.34375 C 2.128906 -1.726562 0.289062 -4.085938 -0.46875 -7.421875 C -0.601562 -8.253906 -0.671875 -9.0625 -0.671875 -9.84375 C -0.671875 -10.332031 -0.625 -11.039062 -0.53125 -11.96875 C -0.3125 -13.84375 0.0390625 -15.519531 0.53125 -17 C 1.132812 -18.832031 1.832031 -20.367188 2.625 -21.609375 C 3.757812 -23.535156 5.316406 -25.210938 7.296875 -26.640625 C 7.472656 -26.734375 7.5625 -26.8125 7.5625 -26.875 C 7.5625 -26.945312 7.472656 -27.050781 7.296875 -27.1875 C 6.367188 -27.832031 5.679688 -28.332031 5.234375 -28.6875 C 4.179688 -29.5625 3.285156 -30.679688 2.546875 -32.046875 C 1.859375 -33.265625 1.515625 -34.53125 1.515625 -35.84375 C 1.515625 -36.207031 1.554688 -36.710938 1.640625 -37.359375 C 2.378906 -40.992188 3.867188 -44.0625 6.109375 -46.5625 C 7.453125 -48.039062 9.269531 -48.78125 11.5625 -48.78125 C 12.207031 -48.78125 13.257812 -48.648438 14.71875 -48.390625 C 16.820312 -47.960938 18.523438 -47.351562 19.828125 -46.5625 C 20.960938 -45.894531 21.859375 -45.144531 22.515625 -44.3125 C 23.097656 -43.53125 23.390625 -42.703125 23.390625 -41.828125 C 23.390625 -41.242188 23.207031 -40.582031 22.84375 -39.84375 C 22.375 -38.925781 21.710938 -38.097656 20.859375 -37.359375 C 20.253906 -36.796875 19.492188 -36.515625 18.578125 -36.515625 C 17.304688 -36.515625 16.144531 -36.929688 15.09375 -37.765625 C 14.707031 -38.054688 14.5625 -38.359375 14.65625 -38.671875 C 14.695312 -38.941406 14.972656 -39.078125 15.484375 -39.078125 L 15.625 -39.078125 C 15.976562 -39.078125 16.328125 -39.289062 16.671875 -39.71875 C 17.203125 -40.4375 17.582031 -41.097656 17.8125 -41.703125 C 17.96875 -42.054688 18.046875 -42.425781 18.046875 -42.8125 C 18.046875 -43.125 18.019531 -43.347656 17.96875 -43.484375 C 17.8125 -44.265625 17.351562 -44.65625 16.59375 -44.65625 C 16.257812 -44.738281 15.914062 -44.738281 15.5625 -44.65625 C 14.632812 -44.65625 13.867188 -44.363281 13.265625 -43.78125 C 12.304688 -42.8125 11.582031 -41.847656 11.09375 -40.890625 C 10.300781 -39.546875 9.695312 -38.347656 9.28125 -37.296875 C 8.875 -36.242188 8.671875 -35.125 8.671875 -33.9375 C 8.671875 -32.050781 9.5 -30.460938 11.15625 -29.171875 C 11.425781 -28.941406 11.796875 -28.757812 12.265625 -28.625 C 12.578125 -28.539062 13.210938 -28.382812 14.171875 -28.15625 C 15.273438 -27.90625 16.265625 -27.535156 17.140625 -27.046875 C 17.492188 -26.828125 17.863281 -26.476562 18.25 -26 C 18.382812 -25.875 18.453125 -25.71875 18.453125 -25.53125 C 18.453125 -25.257812 18.289062 -25.023438 17.96875 -24.828125 C 17.414062 -24.554688 16.957031 -24.421875 16.59375 -24.421875 C 15.71875 -24.472656 14.753906 -24.128906 13.703125 -23.390625 C 11.960938 -22.242188 10.488281 -20.617188 9.28125 -18.515625 C 7.644531 -15.578125 6.828125 -12.472656 6.828125 -9.203125 C 6.828125 -7.972656 7.003906 -6.875 7.359375 -5.90625 C 7.921875 -4.25 8.953125 -3.066406 10.453125 -2.359375 C 10.785156 -2.148438 11.265625 -1.910156 11.890625 -1.640625 C 12.273438 -1.421875 12.800781 -1.351562 13.46875 -1.4375 C 14.164062 -1.625 14.953125 -1.953125 15.828125 -2.421875 C 18.578125 -4.015625 20.78125 -5.914062 22.4375 -8.125 L 24.09375 -10.515625 L 27.1875 -15.21875 C 28.28125 -16.945312 29.003906 -18.289062 29.359375 -19.25 C 29.472656 -19.5 29.617188 -19.664062 29.796875 -19.75 C 30.160156 -19.84375 30.429688 -19.890625 30.609375 -19.890625 C 30.992188 -19.890625 31.316406 -19.820312 31.578125 -19.6875 C 31.941406 -19.550781 32.054688 -19.296875 31.921875 -18.921875 L 30.28125 -15.5625 L 28.15625 -11.484375 L 26.71875 -8.734375 C 26.289062 -7.910156 25.523438 -6.722656 24.421875 -5.171875 C 23.191406 -3.472656 21.488281 -1.925781 19.3125 -0.53125 C 17.457031 0.695312 15.441406 1.3125 13.265625 1.3125 Z M 12.46875 1.3125 "/></g></g></g><g fill="#ffffff" fill-opacity="1"><g transform="translate(88.596877, 201.731463)"><g><path d="M 19.3125 -20.296875 C 19.695312 -20.296875 19.957031 -20.191406 20.09375 -19.984375 C 20.226562 -19.785156 20.25 -19.519531 20.15625 -19.1875 C 19.414062 -16.070312 18.65625 -13.6875 17.875 -12.03125 C 17.46875 -11.113281 16.894531 -9.742188 16.15625 -7.921875 C 15.757812 -6.898438 15.394531 -6.066406 15.0625 -5.421875 C 14.738281 -4.785156 14.332031 -4.164062 13.84375 -3.5625 C 12.457031 -1.96875 10.9375 -0.957031 9.28125 -0.53125 C 8.601562 -0.351562 7.828125 -0.265625 6.953125 -0.265625 C 5.722656 -0.265625 4.476562 -0.523438 3.21875 -1.046875 C 2.394531 -1.398438 1.710938 -1.96875 1.171875 -2.75 C 0.347656 -4.03125 -0.21875 -5.703125 -0.53125 -7.765625 C -0.625 -8.546875 -0.671875 -9.742188 -0.671875 -11.359375 L -0.671875 -13.78125 C -0.671875 -15.789062 -0.648438 -17.300781 -0.609375 -18.3125 C -0.609375 -20.28125 -0.5625 -23.144531 -0.46875 -26.90625 L -0.53125 -26.90625 L -0.609375 -30.28125 C -0.609375 -33.476562 -0.5625 -38.289062 -0.46875 -44.71875 L -0.46875 -45.125 C -0.46875 -45.632812 -0.222656 -46.003906 0.265625 -46.234375 C 0.441406 -46.328125 0.769531 -46.414062 1.25 -46.5 C 2.90625 -46.65625 4.414062 -46.320312 5.78125 -45.5 C 6.519531 -45.019531 6.890625 -44.347656 6.890625 -43.484375 C 6.890625 -39.085938 6.910156 -35.78125 6.953125 -33.5625 L 7.015625 -23.953125 C 7.015625 -22.023438 6.972656 -19.226562 6.890625 -15.5625 L 6.890625 -10.453125 C 6.972656 -8.765625 7.148438 -7.34375 7.421875 -6.1875 C 7.648438 -5.425781 8.203125 -4.675781 9.078125 -3.9375 C 9.316406 -3.882812 9.484375 -3.90625 9.578125 -4 C 9.929688 -4.351562 10.109375 -4.53125 10.109375 -4.53125 C 10.671875 -5.269531 11.066406 -5.820312 11.296875 -6.1875 L 15.765625 -15.09375 C 16.160156 -15.9375 16.726562 -17.234375 17.46875 -18.984375 C 17.738281 -19.722656 18.265625 -20.160156 19.046875 -20.296875 Z M 19.3125 -20.296875 "/></g></g></g><g fill="#ffffff" fill-opacity="1"><g transform="translate(106.069126, 201.731463)"><g/></g></g><g fill="#ffffff" fill-opacity="1"><g transform="translate(129.253457, 201.731463)"><g><path d="M -0.671875 -19.1875 C -0.671875 -21.019531 -0.535156 -23.453125 -0.265625 -26.484375 C 0.00390625 -29.484375 0.617188 -32.378906 1.578125 -35.171875 C 2.492188 -37.867188 3.570312 -40.019531 4.8125 -41.625 C 7.65625 -45.4375 11.347656 -47.957031 15.890625 -49.1875 C 17.953125 -49.75 20.035156 -50.03125 22.140625 -50.03125 C 26.867188 -50.03125 31.070312 -48.765625 34.75 -46.234375 C 37.363281 -44.441406 39.109375 -42.125 39.984375 -39.28125 C 40.628906 -37.039062 40.953125 -35.132812 40.953125 -33.5625 C 40.953125 -28.613281 39.1875 -24.804688 35.65625 -22.140625 L 34.671875 -21.46875 C 34.535156 -21.332031 34.535156 -21.222656 34.671875 -21.140625 L 35.015625 -20.859375 C 36.128906 -20.117188 37.046875 -19.25 37.765625 -18.25 C 38.015625 -17.957031 38.179688 -17.8125 38.265625 -17.8125 C 38.359375 -17.8125 38.445312 -17.847656 38.53125 -17.921875 C 38.625 -18.003906 38.71875 -18.066406 38.8125 -18.109375 L 40.890625 -19.125 C 41.941406 -19.726562 43.082031 -20.207031 44.3125 -20.5625 C 44.445312 -20.601562 44.628906 -20.625 44.859375 -20.625 C 45.191406 -20.625 45.535156 -20.554688 45.890625 -20.421875 C 46.253906 -20.335938 46.4375 -20.179688 46.4375 -19.953125 L 46.4375 -19.828125 C 46.4375 -19.691406 46.378906 -19.585938 46.265625 -19.515625 C 46.148438 -19.453125 46.070312 -19.382812 46.03125 -19.3125 L 44.390625 -18.375 L 39.640625 -15.890625 C 39.441406 -15.804688 39.320312 -15.726562 39.28125 -15.65625 C 39.238281 -15.59375 39.257812 -15.46875 39.34375 -15.28125 L 39.78125 -13.703125 C 39.957031 -13.097656 40.046875 -12.382812 40.046875 -11.5625 C 40.046875 -10.726562 39.957031 -10.019531 39.78125 -9.4375 C 39.269531 -7.507812 38.722656 -5.96875 38.140625 -4.8125 C 36.703125 -1.914062 34.359375 -0.0078125 31.109375 0.90625 C 29.859375 1.21875 28.503906 1.375 27.046875 1.375 C 26.128906 1.375 25.4375 1.351562 24.96875 1.3125 C 23.914062 1.175781 22.816406 0.804688 21.671875 0.203125 C 20.441406 -0.441406 19.691406 -1.425781 19.421875 -2.75 C 19.347656 -3.019531 19.222656 -3.046875 19.046875 -2.828125 C 17.910156 -1.816406 16.242188 -1.03125 14.046875 -0.46875 C 13.304688 -0.289062 12.476562 -0.203125 11.5625 -0.203125 C 9.769531 -0.203125 8 -0.613281 6.25 -1.4375 C 5.019531 -2.050781 3.988281 -3.039062 3.15625 -4.40625 C 1.5 -6.976562 0.445312 -9.664062 0 -12.46875 C -0.445312 -15.582031 -0.671875 -17.820312 -0.671875 -19.1875 Z M 14.171875 -32.765625 L 14.046875 -35.3125 L 14.109375 -35.3125 C 14.109375 -36.769531 14.128906 -37.867188 14.171875 -38.609375 C 14.171875 -39.253906 14.351562 -39.710938 14.71875 -39.984375 C 15.09375 -40.253906 15.664062 -40.390625 16.4375 -40.390625 C 17.457031 -40.390625 18.472656 -40.140625 19.484375 -39.640625 C 20.984375 -38.898438 21.644531 -37.796875 21.46875 -36.328125 C 21.425781 -35.921875 21.40625 -35.347656 21.40625 -34.609375 C 21.40625 -34.023438 21.425781 -33.316406 21.46875 -32.484375 C 21.507812 -31.660156 21.554688 -31.035156 21.609375 -30.609375 L 21.875 -26.078125 C 21.96875 -25.242188 22.023438 -24.539062 22.046875 -23.96875 C 22.066406 -23.394531 22.078125 -22.910156 22.078125 -22.515625 C 22.117188 -22.335938 22.164062 -22.226562 22.21875 -22.1875 C 22.28125 -22.15625 22.398438 -22.195312 22.578125 -22.3125 C 23.628906 -22.84375 24.75 -23.15625 25.9375 -23.25 C 26.632812 -23.25 27.273438 -23.507812 27.859375 -24.03125 L 28.828125 -24.703125 C 30.523438 -25.953125 31.769531 -27.648438 32.5625 -29.796875 C 33.226562 -31.546875 33.5625 -33.304688 33.5625 -35.078125 C 33.5625 -35.546875 33.519531 -36.195312 33.4375 -37.03125 C 33.207031 -38.820312 32.828125 -40.351562 32.296875 -41.625 C 31.328125 -43.957031 29.78125 -45.40625 27.65625 -45.96875 C 26.644531 -46.144531 25.867188 -46.234375 25.328125 -46.234375 C 23.628906 -46.273438 21.769531 -46.050781 19.75 -45.5625 C 17.738281 -45.09375 15.445312 -44.039062 12.875 -42.40625 C 10.851562 -41.101562 9.125 -39.242188 7.6875 -36.828125 C 5.925781 -33.640625 4.851562 -29.804688 4.46875 -25.328125 C 4.375 -23.492188 4.328125 -22.117188 4.328125 -21.203125 C 4.328125 -20.054688 4.351562 -19.203125 4.40625 -18.640625 C 4.539062 -16.628906 4.773438 -14.863281 5.109375 -13.34375 C 5.691406 -10.632812 6.8125 -7.976562 8.46875 -5.375 C 9.070312 -4.539062 9.617188 -3.9375 10.109375 -3.5625 C 10.335938 -3.332031 10.570312 -3.21875 10.8125 -3.21875 C 11 -3.21875 11.222656 -3.285156 11.484375 -3.421875 C 12.003906 -3.710938 12.46875 -4.296875 12.875 -5.171875 C 13.875 -7.140625 14.421875 -9.523438 14.515625 -12.328125 C 14.554688 -14.796875 14.578125 -18.523438 14.578125 -23.515625 C 14.578125 -24.429688 14.535156 -25.8125 14.453125 -27.65625 C 14.359375 -29.875 14.265625 -31.578125 14.171875 -32.765625 Z M 22.578125 -18.453125 C 22.398438 -18.453125 22.28125 -18.425781 22.21875 -18.375 C 22.164062 -18.332031 22.140625 -18.222656 22.140625 -18.046875 L 22.140625 -13.78125 C 22.140625 -11.507812 21.9375 -9.523438 21.53125 -7.828125 L 21.53125 -7.296875 C 21.664062 -7.296875 21.757812 -7.316406 21.8125 -7.359375 L 23.453125 -8.875 C 24.503906 -9.832031 26.273438 -11.050781 28.765625 -12.53125 C 29.453125 -12.976562 30.523438 -13.617188 31.984375 -14.453125 C 32.234375 -14.585938 32.335938 -14.765625 32.296875 -14.984375 C 31.867188 -16.597656 31.21875 -17.84375 30.34375 -18.71875 C 30.164062 -18.9375 29.875 -19.023438 29.46875 -18.984375 C 27.71875 -18.628906 25.421875 -18.453125 22.578125 -18.453125 Z M 24.03125 -3.15625 C 24.03125 -2.457031 24.296875 -1.929688 24.828125 -1.578125 C 25.023438 -1.484375 25.148438 -1.4375 25.203125 -1.4375 C 25.242188 -1.4375 25.46875 -1.503906 25.875 -1.640625 L 27.046875 -2.28125 L 29.03125 -3.9375 C 29.675781 -4.46875 30.203125 -5.171875 30.609375 -6.046875 C 31.304688 -7.390625 31.890625 -8.925781 32.359375 -10.65625 L 32.359375 -11.21875 C 32.359375 -11.351562 32.253906 -11.398438 32.046875 -11.359375 L 31.78125 -11.21875 C 29.207031 -9.5625 27.328125 -8.070312 26.140625 -6.75 C 25.597656 -6.101562 25.050781 -5.363281 24.5 -4.53125 C 24.363281 -4.351562 24.257812 -4.113281 24.1875 -3.8125 C 24.125 -3.507812 24.070312 -3.289062 24.03125 -3.15625 Z M 24.03125 -3.15625 "/></g></g></g><g fill="#ffffff" fill-opacity="1"><g transform="translate(173.034881, 201.731463)"><g><path d="M 24.09375 -19.046875 C 23.570312 -18.222656 22.976562 -17.519531 22.3125 -16.9375 C 21.007812 -15.707031 19.609375 -14.765625 18.109375 -14.109375 C 17.640625 -13.929688 17.382812 -13.585938 17.34375 -13.078125 C 17.070312 -11.753906 16.566406 -10.304688 15.828125 -8.734375 C 15.265625 -7.585938 14.601562 -6.554688 13.84375 -5.640625 C 12.925781 -4.628906 11.816406 -3.96875 10.515625 -3.65625 C 9.460938 -3.414062 8.476562 -3.296875 7.5625 -3.296875 C 6.882812 -3.296875 6.15625 -3.363281 5.375 -3.5 C 3.71875 -3.832031 2.453125 -4.796875 1.578125 -6.390625 C 0.972656 -7.347656 0.46875 -8.703125 0.0625 -10.453125 C -0.425781 -12.421875 -0.671875 -14.625 -0.671875 -17.0625 C -0.671875 -18.675781 -0.378906 -20.804688 0.203125 -23.453125 C 0.710938 -25.535156 1.8125 -27.441406 3.5 -29.171875 C 4.414062 -30.085938 5.75 -30.546875 7.5 -30.546875 C 9.101562 -30.546875 10.691406 -30.148438 12.265625 -29.359375 L 13.265625 -28.765625 C 14.484375 -27.929688 15.132812 -26.765625 15.21875 -25.265625 C 15.21875 -24.835938 15.375 -24.378906 15.6875 -23.890625 C 16.738281 -22.503906 17.378906 -20.847656 17.609375 -18.921875 L 17.8125 -16.734375 C 17.8125 -16.441406 17.929688 -16.375 18.171875 -16.53125 C 18.929688 -16.976562 19.582031 -17.421875 20.125 -17.859375 C 20.664062 -18.296875 21.09375 -18.816406 21.40625 -19.421875 C 21.675781 -19.867188 22.15625 -20.09375 22.84375 -20.09375 C 23.40625 -20.09375 23.800781 -20.003906 24.03125 -19.828125 C 24.25 -19.597656 24.269531 -19.335938 24.09375 -19.046875 Z M 12.03125 -14.109375 C 11.113281 -14.472656 10.40625 -14.976562 9.90625 -15.625 C 9.082031 -16.632812 8.582031 -17.597656 8.40625 -18.515625 C 8.269531 -19.160156 8.203125 -19.796875 8.203125 -20.421875 C 8.203125 -21.898438 8.640625 -23.144531 9.515625 -24.15625 C 9.691406 -24.332031 9.78125 -24.476562 9.78125 -24.59375 C 9.78125 -24.707031 9.710938 -24.882812 9.578125 -25.125 C 9.441406 -25.3125 9.273438 -25.3125 9.078125 -25.125 C 8.535156 -24.257812 8.148438 -23.476562 7.921875 -22.78125 C 7.234375 -20.71875 6.890625 -18.789062 6.890625 -17 C 6.890625 -14.25 7.300781 -11.582031 8.125 -9 C 8.21875 -8.738281 8.332031 -8.492188 8.46875 -8.265625 C 8.601562 -8.035156 8.710938 -7.78125 8.796875 -7.5 C 8.847656 -7.363281 8.960938 -7.335938 9.140625 -7.421875 L 9.375 -7.625 C 10.875 -9.457031 11.878906 -11.429688 12.390625 -13.546875 C 12.441406 -13.742188 12.453125 -13.863281 12.421875 -13.90625 C 12.398438 -13.957031 12.269531 -14.023438 12.03125 -14.109375 Z M 13.203125 -18.578125 C 13.203125 -19.546875 13.046875 -20.441406 12.734375 -21.265625 L 12.53125 -21.40625 C 12.4375 -21.40625 12.390625 -21.335938 12.390625 -21.203125 C 12.234375 -20.734375 12.15625 -20.226562 12.15625 -19.6875 C 12.15625 -18.8125 12.367188 -17.914062 12.796875 -17 L 13.078125 -16.734375 C 13.160156 -17.648438 13.203125 -18.265625 13.203125 -18.578125 Z M 13.203125 -18.578125 "/></g></g></g><g fill="#ffffff" fill-opacity="1"><g transform="translate(194.505587, 201.731463)"><g><path d="M 26.78125 -19.75 L 26.40625 -18.453125 C 26.007812 -17.210938 25.304688 -15.304688 24.296875 -12.734375 L 23.75 -11.21875 C 23.101562 -9.5625 22.320312 -7.953125 21.40625 -6.390625 L 20.421875 -4.609375 C 19.554688 -3.054688 18.6875 -1.773438 17.8125 -0.765625 C 16.84375 0.304688 15.851562 0.953125 14.84375 1.171875 C 13.84375 1.347656 13.09375 1.4375 12.59375 1.4375 C 10.71875 1.4375 9.082031 0.84375 7.6875 -0.34375 C 7.15625 -0.8125 6.800781 -1.398438 6.625 -2.109375 C 6.195312 -3.585938 5.984375 -5.046875 5.984375 -6.484375 C 6.023438 -8.992188 6.238281 -11.425781 6.625 -13.78125 C 6.757812 -15.007812 6.847656 -15.828125 6.890625 -16.234375 C 7.066406 -18.160156 7.203125 -19.359375 7.296875 -19.828125 L 7.296875 -21.140625 C 7.296875 -21.453125 7.25 -21.640625 7.15625 -21.703125 C 7.0625 -21.773438 6.804688 -21.878906 6.390625 -22.015625 C 6.253906 -22.054688 5.851562 -22.179688 5.1875 -22.390625 C 4.53125 -22.609375 3.9375 -22.847656 3.40625 -23.109375 C 2.882812 -23.378906 2.410156 -23.6875 1.984375 -24.03125 L 0.671875 -25.125 C -0.179688 -25.800781 -0.5625 -26.832031 -0.46875 -28.21875 C -0.289062 -30.414062 -0.046875 -32.253906 0.265625 -33.734375 C 0.492188 -34.585938 0.84375 -35.40625 1.3125 -36.1875 C 1.757812 -36.925781 2.488281 -37.296875 3.5 -37.296875 C 4.65625 -37.296875 5.695312 -36.992188 6.625 -36.390625 C 7.382812 -35.847656 7.765625 -35.253906 7.765625 -34.609375 C 7.765625 -33.597656 7.695312 -32.613281 7.5625 -31.65625 C 7.289062 -29.632812 7.066406 -28.117188 6.890625 -27.109375 C 6.847656 -26.890625 6.828125 -26.519531 6.828125 -26 C 6.828125 -25.550781 7.050781 -25.257812 7.5 -25.125 C 7.625 -25.0625 7.816406 -25.003906 8.078125 -24.953125 C 8.335938 -24.910156 8.625 -24.828125 8.9375 -24.703125 C 9.320312 -24.566406 9.726562 -24.40625 10.15625 -24.21875 C 10.59375 -24.039062 11.0625 -23.863281 11.5625 -23.6875 C 11.644531 -23.625 12.015625 -23.410156 12.671875 -23.046875 C 14.035156 -22.222656 14.71875 -21.015625 14.71875 -19.421875 C 14.71875 -18.503906 14.671875 -17.476562 14.578125 -16.34375 C 14.492188 -15.21875 14.382812 -14.238281 14.25 -13.40625 C 14.15625 -12.863281 14.070312 -12.203125 14 -11.421875 C 13.9375 -10.640625 13.882812 -10.046875 13.84375 -9.640625 C 13.75 -8.335938 13.648438 -7.375 13.546875 -6.75 C 13.492188 -6.414062 13.503906 -6.03125 13.578125 -5.59375 C 13.660156 -5.15625 13.703125 -4.847656 13.703125 -4.671875 C 13.835938 -4.128906 13.90625 -3.582031 13.90625 -3.03125 C 13.90625 -2.9375 13.925781 -2.84375 13.96875 -2.75 C 14.019531 -2.664062 14.066406 -2.578125 14.109375 -2.484375 L 14.65625 -2.890625 C 14.875 -3.109375 15.332031 -3.679688 16.03125 -4.609375 C 17.320312 -6.347656 18.3125 -7.789062 19 -8.9375 C 19.6875 -10.082031 20.398438 -11.503906 21.140625 -13.203125 C 22.679688 -16.878906 23.597656 -19.0625 23.890625 -19.75 C 24.160156 -20.382812 24.664062 -20.703125 25.40625 -20.703125 C 25.800781 -20.703125 26.132812 -20.632812 26.40625 -20.5 C 26.5625 -20.445312 26.671875 -20.34375 26.734375 -20.1875 C 26.804688 -20.03125 26.820312 -19.882812 26.78125 -19.75 Z M 26.78125 -19.75 "/></g></g></g><g fill="#ffffff" fill-opacity="1"><g transform="translate(218.52993, 201.731463)"><g><path d="M 28.421875 -20.15625 C 28.648438 -20.15625 28.832031 -20.078125 28.96875 -19.921875 C 29.101562 -19.765625 29.144531 -19.539062 29.09375 -19.25 L 28.828125 -18.25 L 27.65625 -13.265625 C 27.070312 -10.472656 26.363281 -8.347656 25.53125 -6.890625 L 24.703125 -5.515625 C 23.691406 -3.941406 22.15625 -3.203125 20.09375 -3.296875 C 18.03125 -3.296875 16.472656 -4.101562 15.421875 -5.71875 C 15.085938 -6.113281 14.851562 -6.503906 14.71875 -6.890625 C 14.539062 -7.296875 14.269531 -8.171875 13.90625 -9.515625 C 13.769531 -8.953125 13.648438 -8.601562 13.546875 -8.46875 L 12.671875 -6.484375 C 11.878906 -4.867188 10.523438 -3.875 8.609375 -3.5 C 8.046875 -3.363281 7.492188 -3.296875 6.953125 -3.296875 C 5.898438 -3.296875 4.828125 -3.550781 3.734375 -4.0625 C 2.160156 -4.800781 1.09375 -5.851562 0.53125 -7.21875 C -0.0507812 -8.65625 -0.40625 -10.210938 -0.53125 -11.890625 C -0.53125 -12.222656 -0.578125 -12.660156 -0.671875 -13.203125 C -0.828125 -17.234375 -0.125 -20.929688 1.4375 -24.296875 C 2.132812 -25.816406 2.921875 -26.957031 3.796875 -27.71875 C 5.335938 -29.15625 7.070312 -29.894531 9 -29.9375 C 10.707031 -29.9375 12.175781 -29.679688 13.40625 -29.171875 C 13.695312 -29.078125 13.863281 -29.03125 13.90625 -29.03125 C 14.082031 -28.988281 14.171875 -29.035156 14.171875 -29.171875 C 14.222656 -29.253906 14.25 -29.375 14.25 -29.53125 L 14.515625 -37.5 L 14.65625 -43.78125 C 14.65625 -43.957031 14.675781 -44.191406 14.71875 -44.484375 C 14.757812 -44.773438 14.800781 -45.046875 14.84375 -45.296875 C 15.007812 -45.960938 15.25 -46.4375 15.5625 -46.71875 C 15.875 -47 16.351562 -47.140625 17 -47.140625 C 18.226562 -47.097656 19.394531 -46.75 20.5 -46.09375 C 21.550781 -45.445312 22.078125 -44.460938 22.078125 -43.140625 C 22.078125 -39.691406 22.054688 -37.128906 22.015625 -35.453125 C 21.960938 -32.734375 21.828125 -30 21.609375 -27.25 C 21.515625 -25.769531 21.421875 -24.628906 21.328125 -23.828125 L 21.0625 -20.15625 C 21.019531 -19.414062 21 -18.296875 21 -16.796875 C 21 -14.921875 21.046875 -13.519531 21.140625 -12.59375 C 21.265625 -11.164062 21.488281 -9.945312 21.8125 -8.9375 L 22.140625 -8.0625 C 22.210938 -7.96875 22.28125 -7.921875 22.34375 -7.921875 C 22.40625 -7.921875 22.460938 -7.945312 22.515625 -8 C 22.554688 -8.082031 22.617188 -8.179688 22.703125 -8.296875 C 22.796875 -8.410156 22.867188 -8.554688 22.921875 -8.734375 C 23.234375 -9.335938 23.664062 -10.28125 24.21875 -11.5625 C 24.914062 -13.4375 25.625 -15.539062 26.34375 -17.875 L 26.90625 -19.3125 C 27.175781 -19.875 27.640625 -20.15625 28.296875 -20.15625 Z M 13.78125 -24.703125 C 13.78125 -25.171875 13.519531 -25.582031 13 -25.9375 L 12.671875 -26.203125 L 12.265625 -26.34375 C 11.878906 -26.25 11.617188 -26.160156 11.484375 -26.078125 C 10.566406 -25.492188 9.765625 -24.53125 9.078125 -23.1875 C 7.617188 -20.382812 6.890625 -17.335938 6.890625 -14.046875 C 6.890625 -13.078125 6.957031 -12.113281 7.09375 -11.15625 C 7.269531 -9.90625 7.492188 -9.007812 7.765625 -8.46875 L 8.0625 -8.125 C 8.238281 -8.3125 8.328125 -8.40625 8.328125 -8.40625 L 9.140625 -9.984375 C 9.742188 -11.171875 10.394531 -12.835938 11.09375 -14.984375 C 12.28125 -18.210938 13.148438 -21.289062 13.703125 -24.21875 Z M 13.78125 -24.703125 "/></g></g></g><g fill="#ffffff" fill-opacity="1"><g transform="translate(244.872705, 201.731463)"><g><path d="M -0.140625 -34.40625 C -0.140625 -34.582031 -0.101562 -34.890625 -0.03125 -35.328125 C 0.03125 -35.765625 0.109375 -36.160156 0.203125 -36.515625 C 0.378906 -37.253906 0.90625 -37.738281 1.78125 -37.96875 C 1.957031 -38.03125 2.238281 -38.0625 2.625 -38.0625 C 3.070312 -38.0625 3.753906 -37.960938 4.671875 -37.765625 C 5.367188 -37.628906 6.019531 -37.335938 6.625 -36.890625 C 7.207031 -36.460938 7.5 -35.890625 7.5 -35.171875 C 7.5 -34.796875 7.460938 -34.398438 7.390625 -33.984375 C 7.328125 -33.566406 7.269531 -33.226562 7.21875 -32.96875 C 7.175781 -32.644531 7.066406 -32.316406 6.890625 -31.984375 C 6.710938 -31.453125 6.34375 -31.117188 5.78125 -30.984375 C 5.082031 -30.828125 4.710938 -30.75 4.671875 -30.75 C 3.304688 -30.851562 2.253906 -31.109375 1.515625 -31.515625 C 0.328125 -32.117188 -0.222656 -33.082031 -0.140625 -34.40625 Z M 17.0625 -19.421875 L 16.859375 -18.578125 L 14.375 -10.375 C 14.113281 -9.550781 13.769531 -8.828125 13.34375 -8.203125 C 12.019531 -5.804688 11.269531 -4.445312 11.09375 -4.125 C 10.90625 -3.8125 10.660156 -3.46875 10.359375 -3.09375 C 10.054688 -2.726562 9.816406 -2.457031 9.640625 -2.28125 C 8.859375 -1.363281 7.726562 -0.828125 6.25 -0.671875 C 4.363281 -0.578125 2.71875 -0.992188 1.3125 -1.921875 C 0.53125 -2.390625 0.0234375 -3.125 -0.203125 -4.125 C -0.421875 -5.738281 -0.53125 -7.1875 -0.53125 -8.46875 C -0.582031 -9.25 -0.609375 -10.390625 -0.609375 -11.890625 C -0.609375 -13.640625 -0.5625 -15.582031 -0.46875 -17.71875 C -0.382812 -19.863281 -0.316406 -21.375 -0.265625 -22.25 L -0.140625 -24.625 L -0.140625 -24.765625 C -0.0859375 -25.367188 0.046875 -25.789062 0.265625 -26.03125 C 0.492188 -26.28125 0.910156 -26.429688 1.515625 -26.484375 C 1.734375 -26.546875 2.101562 -26.578125 2.625 -26.578125 C 3.757812 -26.578125 4.789062 -26.34375 5.71875 -25.875 C 5.800781 -25.832031 6.125 -25.648438 6.6875 -25.328125 C 7.132812 -24.992188 7.335938 -24.492188 7.296875 -23.828125 L 7.09375 -19.046875 L 7.015625 -16.796875 L 7.09375 -16.796875 L 7.015625 -14.78125 C 6.929688 -13.03125 6.890625 -11.734375 6.890625 -10.890625 C 6.890625 -10.015625 6.929688 -8.75 7.015625 -7.09375 L 7.09375 -5.375 C 7.09375 -5.28125 7.160156 -5.171875 7.296875 -5.046875 L 7.5625 -5.171875 L 7.828125 -5.515625 L 9.28125 -8 L 10.1875 -9.515625 C 10.445312 -10.046875 10.660156 -10.519531 10.828125 -10.9375 C 11.003906 -11.351562 11.132812 -11.695312 11.21875 -11.96875 L 13.40625 -16.9375 C 13.5625 -17.25 13.707031 -17.609375 13.84375 -18.015625 C 13.976562 -18.429688 14.179688 -18.921875 14.453125 -19.484375 C 14.671875 -20.160156 15.128906 -20.5 15.828125 -20.5 C 16.046875 -20.5 16.300781 -20.429688 16.59375 -20.296875 C 16.957031 -20.066406 17.113281 -19.773438 17.0625 -19.421875 Z M 17.0625 -19.421875 "/></g></g></g><g fill="#ffffff" fill-opacity="1"><g transform="translate(259.186509, 201.731463)"><g><path d="M 19.3125 -20.296875 C 19.695312 -20.296875 19.957031 -20.191406 20.09375 -19.984375 C 20.226562 -19.785156 20.25 -19.519531 20.15625 -19.1875 C 19.414062 -16.070312 18.65625 -13.6875 17.875 -12.03125 C 17.46875 -11.113281 16.894531 -9.742188 16.15625 -7.921875 C 15.757812 -6.898438 15.394531 -6.066406 15.0625 -5.421875 C 14.738281 -4.785156 14.332031 -4.164062 13.84375 -3.5625 C 12.457031 -1.96875 10.9375 -0.957031 9.28125 -0.53125 C 8.601562 -0.351562 7.828125 -0.265625 6.953125 -0.265625 C 5.722656 -0.265625 4.476562 -0.523438 3.21875 -1.046875 C 2.394531 -1.398438 1.710938 -1.96875 1.171875 -2.75 C 0.347656 -4.03125 -0.21875 -5.703125 -0.53125 -7.765625 C -0.625 -8.546875 -0.671875 -9.742188 -0.671875 -11.359375 L -0.671875 -13.78125 C -0.671875 -15.789062 -0.648438 -17.300781 -0.609375 -18.3125 C -0.609375 -20.28125 -0.5625 -23.144531 -0.46875 -26.90625 L -0.53125 -26.90625 L -0.609375 -30.28125 C -0.609375 -33.476562 -0.5625 -38.289062 -0.46875 -44.71875 L -0.46875 -45.125 C -0.46875 -45.632812 -0.222656 -46.003906 0.265625 -46.234375 C 0.441406 -46.328125 0.769531 -46.414062 1.25 -46.5 C 2.90625 -46.65625 4.414062 -46.320312 5.78125 -45.5 C 6.519531 -45.019531 6.890625 -44.347656 6.890625 -43.484375 C 6.890625 -39.085938 6.910156 -35.78125 6.953125 -33.5625 L 7.015625 -23.953125 C 7.015625 -22.023438 6.972656 -19.226562 6.890625 -15.5625 L 6.890625 -10.453125 C 6.972656 -8.765625 7.148438 -7.34375 7.421875 -6.1875 C 7.648438 -5.425781 8.203125 -4.675781 9.078125 -3.9375 C 9.316406 -3.882812 9.484375 -3.90625 9.578125 -4 C 9.929688 -4.351562 10.109375 -4.53125 10.109375 -4.53125 C 10.671875 -5.269531 11.066406 -5.820312 11.296875 -6.1875 L 15.765625 -15.09375 C 16.160156 -15.9375 16.726562 -17.234375 17.46875 -18.984375 C 17.738281 -19.722656 18.265625 -20.160156 19.046875 -20.296875 Z M 19.3125 -20.296875 "/></g></g></g><g fill="#ffffff" fill-opacity="1"><g transform="translate(276.658758, 201.731463)"><g><path d="M 19.3125 -20.296875 C 19.695312 -20.296875 19.957031 -20.191406 20.09375 -19.984375 C 20.226562 -19.785156 20.25 -19.519531 20.15625 -19.1875 C 19.414062 -16.070312 18.65625 -13.6875 17.875 -12.03125 C 17.46875 -11.113281 16.894531 -9.742188 16.15625 -7.921875 C 15.757812 -6.898438 15.394531 -6.066406 15.0625 -5.421875 C 14.738281 -4.785156 14.332031 -4.164062 13.84375 -3.5625 C 12.457031 -1.96875 10.9375 -0.957031 9.28125 -0.53125 C 8.601562 -0.351562 7.828125 -0.265625 6.953125 -0.265625 C 5.722656 -0.265625 4.476562 -0.523438 3.21875 -1.046875 C 2.394531 -1.398438 1.710938 -1.96875 1.171875 -2.75 C 0.347656 -4.03125 -0.21875 -5.703125 -0.53125 -7.765625 C -0.625 -8.546875 -0.671875 -9.742188 -0.671875 -11.359375 L -0.671875 -13.78125 C -0.671875 -15.789062 -0.648438 -17.300781 -0.609375 -18.3125 C -0.609375 -20.28125 -0.5625 -23.144531 -0.46875 -26.90625 L -0.53125 -26.90625 L -0.609375 -30.28125 C -0.609375 -33.476562 -0.5625 -38.289062 -0.46875 -44.71875 L -0.46875 -45.125 C -0.46875 -45.632812 -0.222656 -46.003906 0.265625 -46.234375 C 0.441406 -46.328125 0.769531 -46.414062 1.25 -46.5 C 2.90625 -46.65625 4.414062 -46.320312 5.78125 -45.5 C 6.519531 -45.019531 6.890625 -44.347656 6.890625 -43.484375 C 6.890625 -39.085938 6.910156 -35.78125 6.953125 -33.5625 L 7.015625 -23.953125 C 7.015625 -22.023438 6.972656 -19.226562 6.890625 -15.5625 L 6.890625 -10.453125 C 6.972656 -8.765625 7.148438 -7.34375 7.421875 -6.1875 C 7.648438 -5.425781 8.203125 -4.675781 9.078125 -3.9375 C 9.316406 -3.882812 9.484375 -3.90625 9.578125 -4 C 9.929688 -4.351562 10.109375 -4.53125 10.109375 -4.53125 C 10.671875 -5.269531 11.066406 -5.820312 11.296875 -6.1875 L 15.765625 -15.09375 C 16.160156 -15.9375 16.726562 -17.234375 17.46875 -18.984375 C 17.738281 -19.722656 18.265625 -20.160156 19.046875 -20.296875 Z M 19.3125 -20.296875 "/></g></g></g><g fill="#ffffff" fill-opacity="1"><g transform="translate(294.131007, 201.731463)"><g><path d="M 24.09375 -19.046875 C 23.570312 -18.222656 22.976562 -17.519531 22.3125 -16.9375 C 21.007812 -15.707031 19.609375 -14.765625 18.109375 -14.109375 C 17.640625 -13.929688 17.382812 -13.585938 17.34375 -13.078125 C 17.070312 -11.753906 16.566406 -10.304688 15.828125 -8.734375 C 15.265625 -7.585938 14.601562 -6.554688 13.84375 -5.640625 C 12.925781 -4.628906 11.816406 -3.96875 10.515625 -3.65625 C 9.460938 -3.414062 8.476562 -3.296875 7.5625 -3.296875 C 6.882812 -3.296875 6.15625 -3.363281 5.375 -3.5 C 3.71875 -3.832031 2.453125 -4.796875 1.578125 -6.390625 C 0.972656 -7.347656 0.46875 -8.703125 0.0625 -10.453125 C -0.425781 -12.421875 -0.671875 -14.625 -0.671875 -17.0625 C -0.671875 -18.675781 -0.378906 -20.804688 0.203125 -23.453125 C 0.710938 -25.535156 1.8125 -27.441406 3.5 -29.171875 C 4.414062 -30.085938 5.75 -30.546875 7.5 -30.546875 C 9.101562 -30.546875 10.691406 -30.148438 12.265625 -29.359375 L 13.265625 -28.765625 C 14.484375 -27.929688 15.132812 -26.765625 15.21875 -25.265625 C 15.21875 -24.835938 15.375 -24.378906 15.6875 -23.890625 C 16.738281 -22.503906 17.378906 -20.847656 17.609375 -18.921875 L 17.8125 -16.734375 C 17.8125 -16.441406 17.929688 -16.375 18.171875 -16.53125 C 18.929688 -16.976562 19.582031 -17.421875 20.125 -17.859375 C 20.664062 -18.296875 21.09375 -18.816406 21.40625 -19.421875 C 21.675781 -19.867188 22.15625 -20.09375 22.84375 -20.09375 C 23.40625 -20.09375 23.800781 -20.003906 24.03125 -19.828125 C 24.25 -19.597656 24.269531 -19.335938 24.09375 -19.046875 Z M 12.03125 -14.109375 C 11.113281 -14.472656 10.40625 -14.976562 9.90625 -15.625 C 9.082031 -16.632812 8.582031 -17.597656 8.40625 -18.515625 C 8.269531 -19.160156 8.203125 -19.796875 8.203125 -20.421875 C 8.203125 -21.898438 8.640625 -23.144531 9.515625 -24.15625 C 9.691406 -24.332031 9.78125 -24.476562 9.78125 -24.59375 C 9.78125 -24.707031 9.710938 -24.882812 9.578125 -25.125 C 9.441406 -25.3125 9.273438 -25.3125 9.078125 -25.125 C 8.535156 -24.257812 8.148438 -23.476562 7.921875 -22.78125 C 7.234375 -20.71875 6.890625 -18.789062 6.890625 -17 C 6.890625 -14.25 7.300781 -11.582031 8.125 -9 C 8.21875 -8.738281 8.332031 -8.492188 8.46875 -8.265625 C 8.601562 -8.035156 8.710938 -7.78125 8.796875 -7.5 C 8.847656 -7.363281 8.960938 -7.335938 9.140625 -7.421875 L 9.375 -7.625 C 10.875 -9.457031 11.878906 -11.429688 12.390625 -13.546875 C 12.441406 -13.742188 12.453125 -13.863281 12.421875 -13.90625 C 12.398438 -13.957031 12.269531 -14.023438 12.03125 -14.109375 Z M 13.203125 -18.578125 C 13.203125 -19.546875 13.046875 -20.441406 12.734375 -21.265625 L 12.53125 -21.40625 C 12.4375 -21.40625 12.390625 -21.335938 12.390625 -21.203125 C 12.234375 -20.734375 12.15625 -20.226562 12.15625 -19.6875 C 12.15625 -18.8125 12.367188 -17.914062 12.796875 -17 L 13.078125 -16.734375 C 13.160156 -17.648438 13.203125 -18.265625 13.203125 -18.578125 Z M 13.203125 -18.578125 "/></g></g></g></svg>