<svg xmlns="http://www.w3.org/2000/svg" xmlns:xlink="http://www.w3.org/1999/xlink" width="500" zoomAndPan="magnify" viewBox="0 0 375 374.999991" height="500" preserveAspectRatio="xMidYMid meet" version="1.0"><defs><g/></defs><path stroke-linecap="butt" transform="matrix(0.889354, 0, 0, 0.889354, 56.307306, 148.800108)" fill="none" stroke-linejoin="miter" d="M 17.456179 71.47555 C 14.355263 71.47555 11.57498 70.856245 9.106546 69.622028 C 5.82994 68.058393 3.765591 65.401093 2.909106 61.650127 C 2.755378 60.718973 2.68071 59.809781 2.68071 58.931335 C 2.68071 58.373522 2.733417 57.58292 2.834438 56.550745 C 3.084795 54.433689 3.488881 52.54503 4.042302 50.880374 C 4.723098 48.816025 5.504915 47.089877 6.383362 45.706324 C 7.670286 43.540954 9.418394 41.647902 11.636471 40.035953 C 11.838514 39.939323 11.939535 39.847087 11.939535 39.772419 C 11.939535 39.697751 11.838514 39.583553 11.636471 39.434217 C 10.604297 38.705106 9.835656 38.134116 9.330549 37.734423 C 8.149039 36.750563 7.138826 35.489992 6.308694 33.952711 C 5.526876 32.595511 5.135968 31.172428 5.135968 29.683462 C 5.135968 29.283768 5.188674 28.717171 5.289696 27.983668 C 6.119828 23.903284 7.793268 20.455382 10.314409 17.631177 C 11.825337 15.970913 13.867725 15.140781 16.432789 15.140781 C 17.166291 15.140781 18.347802 15.290117 19.986104 15.593181 C 22.353517 16.071934 24.268531 16.75273 25.731144 17.631177 C 27.013676 18.386641 28.023889 19.229949 28.753 20.165495 C 29.407442 21.043941 29.732467 21.979487 29.732467 22.958954 C 29.732467 23.613397 29.534817 24.360076 29.130732 25.190208 C 28.599271 26.222383 27.856984 27.153536 26.899478 27.983668 C 26.218682 28.616149 25.362196 28.927998 24.330022 28.927998 C 22.893762 28.927998 21.584877 28.462421 20.403366 27.531268 C 19.972928 27.206243 19.810415 26.863649 19.911436 26.51227 C 19.959751 26.209206 20.275992 26.05987 20.855766 26.05987 L 21.005102 26.05987 C 21.409188 26.05987 21.800096 25.818297 22.177828 25.339544 C 22.783956 24.535766 23.210003 23.789086 23.464752 23.112682 C 23.640441 22.708597 23.728286 22.291335 23.728286 21.865288 C 23.728286 21.509518 23.701933 21.25916 23.653618 21.109825 C 23.473537 20.226986 22.959645 19.787763 22.10316 19.787763 C 21.725428 19.686741 21.33452 19.686741 20.930434 19.787763 C 19.89826 19.787763 19.041774 20.112788 18.360978 20.76723 C 17.280489 21.852112 16.459142 22.932601 15.905721 24.017482 C 15.022882 25.52841 14.350871 26.876825 13.885294 28.062728 C 13.419717 29.244238 13.186929 30.504809 13.186929 31.840048 C 13.186929 33.952711 14.118082 35.744742 15.980389 37.202963 C 16.283453 37.457712 16.700715 37.659755 17.227783 37.809091 C 17.579161 37.910112 18.299487 38.085802 19.379976 38.336159 C 20.614194 38.612869 21.725428 39.030131 22.704896 39.583553 C 23.108981 39.838302 23.526243 40.224819 23.95229 40.756279 C 24.106018 40.905615 24.180686 41.081304 24.180686 41.283347 C 24.180686 41.586411 24.004997 41.849944 23.653618 42.078341 C 23.021137 42.381405 22.507246 42.53074 22.10316 42.53074 C 21.1193 42.482426 20.038811 42.873335 18.852908 43.703466 C 16.889581 44.985998 15.224925 46.813167 13.867725 49.18058 C 12.02738 52.479146 11.109403 55.970971 11.109403 59.647269 C 11.109403 61.030822 11.307054 62.265039 11.711139 63.34992 C 12.343621 65.212227 13.498778 66.547465 15.189787 67.355636 C 15.567519 67.584032 16.107763 67.847566 16.814913 68.15063 C 17.240959 68.400987 17.833911 68.475655 18.589375 68.374634 C 19.371192 68.172591 20.249638 67.808036 21.233498 67.280968 C 24.330022 65.49333 26.811633 63.34992 28.678332 60.855133 L 30.527461 58.175871 L 34.006109 52.883231 C 35.240326 50.946257 36.057282 49.435329 36.461367 48.350448 C 36.584349 48.073737 36.751254 47.884871 36.953297 47.78385 C 37.35299 47.682829 37.656054 47.634514 37.858097 47.634514 C 38.284143 47.634514 38.653091 47.709182 38.951762 47.858518 C 39.355848 48.012246 39.483223 48.297741 39.329494 48.72818 L 37.480365 52.505499 L 35.099775 57.077813 L 33.474649 60.174337 C 32.995896 61.109882 32.139411 62.445121 30.905193 64.180052 C 29.52164 66.095066 27.606627 67.834389 25.164546 69.393632 C 23.073844 70.781577 20.80306 71.47555 18.360978 71.47555 Z M 58.031619 47.177722 C 58.462057 47.177722 58.751945 47.29192 58.901281 47.520316 C 59.050616 47.74432 59.07697 48.047384 58.975949 48.425116 C 58.145817 51.925725 57.289331 54.609379 56.406493 56.471685 C 55.954093 57.508252 55.312827 59.041141 54.478303 61.083529 C 54.025903 62.243078 53.617425 63.178623 53.25287 63.898949 C 52.888315 64.614883 52.42713 65.313248 51.873709 65.994044 C 50.310075 67.781683 48.597104 68.914879 46.734798 69.393632 C 45.979334 69.595674 45.109672 69.696696 44.125812 69.696696 C 42.742259 69.696696 41.345529 69.406808 39.935622 68.827034 C 39.000077 68.427341 38.235829 67.781683 37.629701 66.903236 C 36.698547 65.466976 36.052889 63.591493 35.701511 61.272395 C 35.600489 60.389556 35.552175 59.041141 35.552175 57.227149 L 35.552175 54.508357 C 35.552175 52.241966 35.574136 50.542172 35.626843 49.408976 C 35.626843 47.190899 35.675157 43.967 35.776179 39.737281 L 35.701511 39.737281 L 35.626843 35.955569 C 35.626843 32.353939 35.675157 26.938317 35.776179 19.708703 L 35.776179 19.256303 C 35.776179 18.676528 36.052889 18.263658 36.610703 18.008909 C 36.808353 17.907887 37.177301 17.806866 37.704369 17.710237 C 39.566675 17.530155 41.270861 17.907887 42.80375 18.843433 C 43.638274 19.370501 44.051144 20.125965 44.051144 21.109825 C 44.051144 26.046693 44.077497 29.762522 44.125812 32.252917 L 44.204872 43.0622 C 44.204872 45.227571 44.152165 48.376801 44.051144 52.505499 L 44.051144 58.250539 C 44.152165 60.139199 44.354208 61.737971 44.657272 63.046856 C 44.907629 63.903342 45.526934 64.74665 46.506402 65.581174 C 46.783112 65.629489 46.97637 65.603136 47.073 65.502114 C 47.477085 65.102421 47.679128 64.900378 47.679128 64.900378 C 48.307217 64.065854 48.750832 63.450942 49.001189 63.046856 L 54.025903 53.03696 C 54.478303 52.079453 55.123961 50.61684 55.954093 48.653512 C 56.257157 47.82338 56.850108 47.33145 57.728555 47.177722 Z M 81.266526 48.425116 C 81.266526 46.360767 81.415862 43.628798 81.718926 40.224819 C 82.02199 36.851584 82.715963 33.588156 83.796452 30.438926 C 84.828627 27.41707 86.040883 25.001342 87.424436 23.18735 C 90.621981 18.904924 94.781424 16.071934 99.893983 14.683989 C 102.208689 14.0559 104.554141 13.739659 106.921554 13.739659 C 112.236155 13.739659 116.957804 15.162742 121.090895 18.008909 C 124.038082 20.024943 126.00141 22.633929 126.98527 25.831474 C 127.714381 28.348223 128.078936 30.491632 128.078936 32.252917 C 128.078936 37.822268 126.089255 42.104694 122.109892 45.100196 L 121.011834 45.85566 C 120.862498 46.009388 120.862498 46.132371 121.011834 46.233392 L 121.389566 46.536456 C 122.650137 47.366588 123.682311 48.350448 124.490482 49.483644 C 124.767193 49.813061 124.956059 49.975574 125.05708 49.975574 C 125.158101 49.975574 125.259123 49.931651 125.360144 49.843807 C 125.461165 49.755962 125.562187 49.685686 125.663208 49.63298 L 128.004268 48.499784 C 129.185778 47.82338 130.472702 47.278743 131.856255 46.874658 C 132.009984 46.826343 132.212026 46.79999 132.462383 46.79999 C 132.840115 46.79999 133.231024 46.874658 133.635109 47.028386 C 134.034802 47.129407 134.236845 47.305097 134.236845 47.555454 L 134.236845 47.709182 C 134.236845 47.858518 134.175354 47.972716 134.047979 48.047384 C 133.924997 48.122052 133.83276 48.201112 133.784445 48.27578 L 131.930923 49.334308 L 126.607538 52.127768 C 126.379142 52.228789 126.238591 52.316633 126.190276 52.391301 C 126.137569 52.470362 126.163923 52.606521 126.264944 52.808563 L 126.756874 54.583025 C 126.958917 55.263821 127.059938 56.071992 127.059938 57.003145 C 127.059938 57.934298 126.958917 58.729292 126.756874 59.383735 C 126.177099 61.549105 125.562187 63.288429 124.903352 64.597314 C 123.291403 67.847566 120.660456 69.986583 117.010511 71.018758 C 115.596212 71.374528 114.072108 71.550218 112.438197 71.550218 C 111.406023 71.550218 110.624206 71.523864 110.092745 71.47555 C 108.911235 71.321822 107.677018 70.908952 106.390094 70.228156 C 105.006541 69.494653 104.163232 68.387811 103.860168 66.903236 C 103.7855 66.600172 103.644949 66.573819 103.442906 66.824176 C 102.160374 67.961764 100.284891 68.840211 97.816457 69.472692 C 96.981933 69.674735 96.050779 69.771364 95.018605 69.771364 C 93.00257 69.771364 91.012889 69.305787 89.049562 68.374634 C 87.661616 67.693838 86.506459 66.586996 85.570914 65.049714 C 83.708607 62.155233 82.527097 59.128985 82.02199 55.984147 C 81.516884 52.479146 81.266526 49.962397 81.266526 48.425116 Z M 97.965793 33.162109 L 97.816457 30.28959 L 97.891125 30.28959 C 97.891125 28.651287 97.917478 27.41707 97.965793 26.586938 C 97.965793 25.857827 98.172228 25.339544 98.58949 25.03648 C 99.006752 24.737808 99.639233 24.58408 100.495718 24.58408 C 101.655268 24.58408 102.80164 24.860791 103.934836 25.414212 C 105.621453 26.248736 106.368133 27.491738 106.16609 29.156394 C 106.113383 29.608794 106.091422 30.25006 106.091422 31.084584 C 106.091422 31.739026 106.113383 32.529628 106.16609 33.465173 C 106.214405 34.396327 106.267111 35.099084 106.315426 35.577837 L 106.61849 40.681611 C 106.719511 41.612764 106.781002 42.398973 106.807356 43.040239 C 106.833709 43.685897 106.846886 44.230534 106.846886 44.687326 C 106.8952 44.884977 106.952299 45.007959 107.013791 45.043097 C 107.079674 45.082627 107.211441 45.038705 107.413484 44.91133 C 108.594994 44.309594 109.855565 43.953824 111.190803 43.852802 C 111.972621 43.852802 112.688555 43.562915 113.342997 42.98314 L 114.441055 42.227676 C 116.351676 40.81777 117.752798 38.902757 118.631245 36.487029 C 119.391101 34.523701 119.768833 32.542805 119.768833 30.553124 C 119.768833 30.026056 119.716126 29.296945 119.615105 28.3614 C 119.364747 26.349757 118.934309 24.62361 118.332573 23.18735 C 117.247691 20.565188 115.508368 18.944454 113.118993 18.311973 C 111.981405 18.10993 111.116136 18.008909 110.510007 18.008909 C 108.594994 17.960594 106.504292 18.210951 104.2379 18.764373 C 101.971508 19.295833 99.388876 20.477343 96.494395 22.317688 C 94.223611 23.780302 92.286637 25.871004 90.674687 28.589796 C 88.685006 32.165073 87.47275 36.473852 87.046704 41.511743 C 86.945682 43.576092 86.897368 45.12655 86.897368 46.158724 C 86.897368 47.441256 86.919329 48.398762 86.972036 49.031244 C 87.121372 51.297636 87.384906 53.287317 87.762638 55.000287 C 88.421472 58.048496 89.677651 61.030822 91.544349 63.956048 C 92.220753 64.887202 92.840058 65.567998 93.393479 65.994044 C 93.648229 66.248794 93.911762 66.371776 94.188473 66.371776 C 94.390516 66.371776 94.640873 66.297108 94.943937 66.147772 C 95.523712 65.818355 96.037603 65.163912 96.494395 64.180052 C 97.627591 61.966367 98.242503 59.282714 98.343525 56.133483 C 98.396231 53.361985 98.418193 49.167403 98.418193 43.549738 C 98.418193 42.517564 98.369878 40.971498 98.268857 38.902757 C 98.167835 36.412361 98.066814 34.497348 97.965793 33.162109 Z M 107.413484 49.255248 C 107.211441 49.255248 107.079674 49.281601 107.013791 49.334308 C 106.952299 49.382622 106.921554 49.509997 106.921554 49.71204 L 106.921554 54.508357 C 106.921554 57.05146 106.693158 59.282714 106.240758 61.197727 L 106.240758 61.799463 C 106.390094 61.799463 106.491115 61.777501 106.543822 61.724795 L 108.392952 60.025001 C 109.578854 58.940119 111.568535 57.569743 114.361995 55.905087 C 115.143812 55.404373 116.351676 54.684047 117.989979 53.752893 C 118.266689 53.603557 118.380887 53.401515 118.332573 53.146765 C 117.85382 51.337166 117.120317 49.936044 116.140849 48.956576 C 115.938806 48.701826 115.609389 48.600805 115.156989 48.653512 C 113.193661 49.057597 110.611029 49.255248 107.413484 49.255248 Z M 109.03861 66.446444 C 109.03861 67.228261 109.337282 67.821213 109.94341 68.225298 C 110.171806 68.326319 110.307965 68.374634 110.360672 68.374634 C 110.408986 68.374634 110.659343 68.299966 111.116136 68.15063 L 112.438197 67.430304 L 114.665059 65.581174 C 115.398562 64.975046 115.987121 64.180052 116.443913 63.200585 C 117.221338 61.689657 117.875781 59.96351 118.407241 58.022143 L 118.407241 57.380877 C 118.407241 57.227149 118.293043 57.178834 118.064647 57.227149 L 117.765975 57.380877 C 114.867102 59.243183 112.750046 60.921016 111.414807 62.405591 C 110.813071 63.134701 110.193767 63.969225 109.565678 64.900378 C 109.416342 65.102421 109.302144 65.370347 109.227476 65.712941 C 109.148416 66.051143 109.086924 66.297108 109.03861 66.446444 Z M 158.341415 48.578844 C 157.76164 49.509997 157.094021 50.300599 156.338557 50.959434 C 154.875944 52.342987 153.303525 53.401515 151.616907 54.130625 C 151.085447 54.332668 150.79556 54.723577 150.747246 55.303351 C 150.444182 56.787926 149.877584 58.413052 149.047452 60.174337 C 148.41497 61.461261 147.672683 62.62081 146.816198 63.652984 C 145.784023 64.78618 144.536629 65.528468 143.074016 65.879846 C 141.892506 66.156557 140.785663 66.297108 139.749096 66.297108 C 138.993633 66.297108 138.176677 66.22244 137.293839 66.068712 C 135.431532 65.69098 134.008449 64.610491 133.024589 62.822853 C 132.343793 61.737971 131.777195 60.213867 131.324795 58.250539 C 130.771374 56.032462 130.494663 53.550851 130.494663 50.805706 C 130.494663 48.991714 130.819689 46.597947 131.478523 43.628798 C 132.053906 41.283347 133.288123 39.144329 135.181175 37.202963 C 136.21335 36.170788 137.711101 35.656897 139.674428 35.656897 C 141.48842 35.656897 143.276059 36.09612 145.041736 36.978959 L 146.174932 37.659755 C 147.536524 38.590908 148.265634 39.899793 148.366656 41.586411 C 148.366656 42.065164 148.542345 42.583447 148.893724 43.136868 C 150.079626 44.696111 150.79556 46.562809 151.05031 48.72818 L 151.274313 51.183438 C 151.274313 51.512855 151.414865 51.587523 151.691575 51.411834 C 152.548061 50.906727 153.277171 50.410405 153.883299 49.918475 C 154.485035 49.426545 154.963788 48.842378 155.319559 48.161582 C 155.618231 47.656475 156.162868 47.406118 156.940293 47.406118 C 157.572774 47.406118 158.011997 47.507139 158.266747 47.709182 C 158.517104 47.959539 158.543457 48.249427 158.341415 48.578844 Z M 144.778202 54.130625 C 143.741635 53.72654 142.951034 53.159942 142.397612 52.430832 C 141.462067 51.297636 140.895469 50.212754 140.693426 49.18058 C 140.54409 48.451469 140.469422 47.731143 140.469422 47.028386 C 140.469422 45.36373 140.961352 43.967 141.94082 42.833804 C 142.142863 42.631762 142.243884 42.469249 142.243884 42.341874 C 142.243884 42.218892 142.169216 42.016849 142.01988 41.740139 C 141.866152 41.538096 141.677286 41.538096 141.453282 41.740139 C 140.847154 42.719606 140.416716 43.602445 140.166358 44.384262 C 139.384541 46.698969 138.993633 48.868731 138.993633 50.880374 C 138.993633 53.981289 139.459209 56.976792 140.394755 59.875665 C 140.495776 60.174337 140.618758 60.45544 140.772486 60.705797 C 140.921822 60.956154 141.049197 61.246041 141.150218 61.575459 C 141.198533 61.724795 141.325908 61.751148 141.52795 61.650127 L 141.791484 61.421731 C 143.478101 59.357382 144.611297 57.139304 145.191072 54.771891 C 145.243779 54.547887 145.256955 54.407336 145.230602 54.359021 C 145.204249 54.306315 145.054913 54.231647 144.778202 54.130625 Z M 146.100264 49.105912 C 146.100264 48.021031 145.920182 47.015209 145.568804 46.084056 L 145.3448 45.930328 C 145.243779 45.930328 145.191072 46.009388 145.191072 46.158724 C 145.015383 46.685792 144.927538 47.25239 144.927538 47.858518 C 144.927538 48.842378 145.164719 49.848199 145.643472 50.880374 L 145.946536 51.183438 C 146.047557 50.151263 146.100264 49.45729 146.100264 49.105912 Z M 185.502978 47.78385 L 185.090108 49.255248 C 184.637708 50.643193 183.842714 52.78221 182.709518 55.681083 L 182.10339 57.380877 C 181.37428 59.243183 180.491441 61.057175 179.459267 62.822853 L 178.365601 64.82571 C 177.381741 66.560642 176.397881 67.996902 175.418413 69.130098 C 174.333532 70.337962 173.226689 71.071464 172.093493 71.321822 C 170.960298 71.523864 170.112597 71.624886 169.559176 71.624886 C 167.446512 71.624886 165.606167 70.957266 164.042532 69.622028 C 163.440796 69.09496 163.036711 68.427341 162.834668 67.61917 C 162.355915 65.958906 162.118734 64.320604 162.118734 62.708655 C 162.167049 59.888842 162.408622 57.152481 162.834668 54.508357 C 162.984004 53.124804 163.085025 52.202435 163.137732 51.750036 C 163.339775 49.584665 163.489111 48.23625 163.590132 47.709182 L 163.590132 46.233392 C 163.590132 45.882013 163.541818 45.666794 163.440796 45.592126 C 163.339775 45.517458 163.049888 45.40326 162.571134 45.253924 C 162.417406 45.201218 161.973791 45.056274 161.227111 44.819093 C 160.484824 44.577521 159.817205 44.309594 159.228646 44.00653 C 158.635694 43.703466 158.099842 43.360872 157.621089 42.98314 L 156.145299 41.740139 C 155.192184 40.984675 154.761746 39.825125 154.862767 38.261491 C 155.06481 35.793056 155.34152 33.728707 155.692899 32.064051 C 155.947648 31.106545 156.334165 30.188568 156.865625 29.30573 C 157.370732 28.475598 158.187687 28.062728 159.320883 28.062728 C 160.629768 28.062728 161.802494 28.40093 162.834668 29.081726 C 163.691153 29.683462 164.121592 30.351081 164.121592 31.084584 C 164.121592 32.217779 164.042532 33.324622 163.893196 34.409503 C 163.590132 36.675895 163.339775 38.375689 163.137732 39.508885 C 163.085025 39.759242 163.063064 40.176504 163.063064 40.756279 C 163.063064 41.261385 163.313422 41.586411 163.818528 41.740139 C 163.967864 41.814807 164.187476 41.876298 164.477363 41.929005 C 164.76725 41.977319 165.087883 42.078341 165.443654 42.227676 C 165.869701 42.381405 166.330885 42.557094 166.822815 42.759136 C 167.310353 42.961179 167.833028 43.163222 168.390842 43.360872 C 168.491863 43.439932 168.904733 43.677113 169.633843 44.081198 C 171.171125 45.012352 171.939765 46.373943 171.939765 48.161582 C 171.939765 49.193756 171.891451 50.344521 171.790429 51.618269 C 171.689408 52.892016 171.562033 53.994466 171.412697 54.925619 C 171.311676 55.527355 171.223831 56.274035 171.149164 57.152481 C 171.070103 58.03532 171.008612 58.702939 170.960298 59.155339 C 170.859276 60.617952 170.745078 61.698441 170.617703 62.405591 C 170.569389 62.783323 170.586958 63.218153 170.674802 63.710083 C 170.762647 64.202013 170.806569 64.544608 170.806569 64.74665 C 170.960298 65.352778 171.034966 65.967691 171.034966 66.600172 C 171.034966 66.701194 171.061319 66.802215 171.109633 66.903236 C 171.157948 67.004258 171.210655 67.105279 171.258969 67.201908 L 171.865097 66.749508 C 172.115455 66.499151 172.633738 65.857885 173.415555 64.82571 C 174.873776 62.85799 175.989403 61.232865 176.758044 59.950333 C 177.526685 58.663409 178.326071 57.064636 179.156203 55.149623 C 180.895527 51.020925 181.927701 48.565667 182.257118 47.78385 C 182.55579 47.076701 183.12678 46.725322 183.956912 46.725322 C 184.409312 46.725322 184.787044 46.79999 185.090108 46.953718 C 185.265797 47.002033 185.393172 47.116231 185.46784 47.29192 C 185.542508 47.467609 185.555685 47.634514 185.502978 47.78385 Z M 214.368727 47.33145 C 214.623477 47.33145 214.821127 47.419295 214.974855 47.594984 C 215.124191 47.770673 215.176898 48.021031 215.124191 48.350448 L 214.821127 49.483644 L 213.499065 55.074955 C 212.844623 58.224186 212.054021 60.617952 211.118475 62.256255 L 210.174146 63.80232 C 209.04095 65.567998 207.314802 66.39813 205.000096 66.297108 C 202.680998 66.297108 200.932889 65.392308 199.746987 63.578317 C 199.369255 63.121524 199.105721 62.682301 198.951993 62.256255 C 198.754342 61.799463 198.451278 60.819995 198.047193 59.309067 C 197.897857 59.937156 197.757305 60.328065 197.629931 60.477401 L 196.650463 62.708655 C 195.767624 64.522646 194.24352 65.642666 192.078149 66.068712 C 191.445668 66.22244 190.830755 66.297108 190.224627 66.297108 C 189.043117 66.297108 187.835253 66.007221 186.601036 65.427446 C 184.835359 64.597314 183.640672 63.411412 183.00819 61.878523 C 182.353748 60.266574 181.949662 58.514073 181.800326 56.625413 C 181.800326 56.247681 181.752012 55.755751 181.65099 55.149623 C 181.470909 50.61684 182.265903 46.461788 184.03158 42.684469 C 184.809005 40.971498 185.691844 39.684574 186.675704 38.828089 C 188.410636 37.21614 190.365179 36.386008 192.530549 36.333301 C 194.445562 36.333301 196.097042 36.623188 197.480595 37.202963 C 197.810012 37.303984 197.998878 37.356691 198.047193 37.356691 C 198.249235 37.405006 198.350257 37.356691 198.350257 37.202963 C 198.398571 37.101942 198.424925 36.965782 198.424925 36.790093 L 198.727989 27.834332 L 198.877325 20.76723 C 198.877325 20.565188 198.903678 20.301654 198.951993 19.976629 C 199.004699 19.647211 199.053014 19.344147 199.105721 19.067437 C 199.28141 18.311973 199.544944 17.77612 199.900715 17.464272 C 200.252093 17.148031 200.792338 16.989911 201.521448 16.989911 C 202.909394 17.042618 204.218279 17.429134 205.452496 18.162637 C 206.638399 18.891747 207.226958 19.99859 207.226958 21.487557 C 207.226958 25.365897 207.204997 28.251594 207.15229 30.140254 C 207.103975 33.188463 206.950247 36.258633 206.69989 39.359549 C 206.598869 41.019813 206.497847 42.306737 206.396826 43.211536 L 206.093762 47.33145 C 206.045447 48.161582 206.019094 49.422153 206.019094 51.10877 C 206.019094 53.225826 206.071801 54.798245 206.16843 55.830419 C 206.322158 57.442368 206.572515 58.817137 206.928286 59.950333 L 207.306018 60.934193 C 207.380686 61.030822 207.455354 61.083529 207.530022 61.083529 C 207.60469 61.083529 207.670573 61.057175 207.718888 61.008861 C 207.771595 60.907839 207.846263 60.793641 207.947284 60.666267 C 208.048305 60.543284 208.122973 60.376379 208.171288 60.174337 C 208.527059 59.497933 209.018989 58.439405 209.647078 57.003145 C 210.428895 54.886089 211.219497 52.518676 212.027667 49.900906 L 212.668933 48.27578 C 212.971997 47.643299 213.485889 47.33145 214.219391 47.33145 Z M 197.897857 42.227676 C 197.897857 41.700609 197.60797 41.235032 197.028195 40.830947 L 196.650463 40.527883 L 196.193671 40.378547 C 195.767624 40.479568 195.477737 40.580589 195.328401 40.681611 C 194.296227 41.336053 193.387035 42.416542 192.605217 43.92747 C 190.971307 47.076701 190.14996 50.502642 190.14996 54.205293 C 190.14996 55.290175 190.224627 56.375056 190.378356 57.455545 C 190.580398 58.865452 190.830755 59.875665 191.13382 60.477401 L 191.472021 60.855133 C 191.674064 60.65309 191.775085 60.552069 191.775085 60.552069 L 192.679885 58.777607 C 193.360681 57.442368 194.094184 55.566885 194.871609 53.146765 C 196.206848 49.523174 197.190708 46.057703 197.818797 42.759136 Z M 211.873939 31.308587 C 211.873939 31.106545 211.913469 30.763951 211.988137 30.272021 C 212.062805 29.780091 212.15065 29.332083 212.251671 28.927998 C 212.453714 28.097866 213.046665 27.557621 214.026133 27.302872 C 214.228176 27.228204 214.544416 27.193066 214.970463 27.193066 C 215.47557 27.193066 216.24421 27.302872 217.276385 27.531268 C 218.058202 27.684996 218.787313 28.010021 219.468109 28.515128 C 220.122551 28.993881 220.451969 29.635147 220.451969 30.438926 C 220.451969 30.869364 220.412439 31.317372 220.337771 31.782949 C 220.263103 32.248525 220.197219 32.630649 220.148905 32.933713 C 220.096198 33.289484 219.973215 33.654039 219.771173 34.031771 C 219.56913 34.633507 219.151868 35.011239 218.523779 35.164967 C 217.741961 35.340656 217.329092 35.428501 217.276385 35.428501 C 215.739104 35.301126 214.557593 35.011239 213.727461 34.558839 C 212.392223 33.878043 211.772918 32.797554 211.873939 31.308587 Z M 231.217329 48.161582 L 230.993326 49.105912 L 228.195474 58.325207 C 227.89241 59.25636 227.501501 60.077708 227.02714 60.780465 C 225.538173 63.477295 224.694865 65.0014 224.492822 65.352778 C 224.290779 65.704157 224.022853 66.090673 223.680259 66.503543 C 223.342057 66.920805 223.069739 67.228261 222.867696 67.430304 C 221.98925 68.462479 220.715503 69.068607 219.050847 69.244296 C 216.938183 69.345317 215.084661 68.879741 213.499065 67.847566 C 212.616227 67.316106 212.049629 66.485974 211.799271 65.352778 C 211.544522 63.538786 211.421539 61.913661 211.421539 60.477401 C 211.368833 59.598954 211.346872 58.31203 211.346872 56.625413 C 211.346872 54.662085 211.395186 52.474754 211.496207 50.067811 C 211.597229 47.66526 211.671897 45.969858 211.724603 44.985998 L 211.873939 42.306737 L 211.873939 42.153008 C 211.922254 41.472212 212.075982 40.993459 212.326339 40.716749 C 212.581089 40.440038 213.046665 40.277525 213.727461 40.224819 C 213.977819 40.150151 214.390688 40.115013 214.970463 40.115013 C 216.257387 40.115013 217.416936 40.378547 218.449111 40.905615 C 218.550132 40.958321 218.914687 41.160364 219.542777 41.511743 C 220.047883 41.889475 220.276279 42.456072 220.223573 43.211536 L 219.995176 48.578844 L 219.920509 51.10877 L 219.995176 51.10877 L 219.920509 53.375161 C 219.819487 55.338489 219.771173 56.801102 219.771173 57.758609 C 219.771173 58.742469 219.819487 60.165552 219.920509 62.027859 L 219.995176 63.956048 C 219.995176 64.05707 220.074237 64.180052 220.223573 64.33378 L 220.526637 64.180052 L 220.829701 63.80232 L 222.454826 61.008861 L 223.473824 59.309067 C 223.776888 58.702939 224.022853 58.167087 224.211719 57.70151 C 224.400585 57.235933 224.545529 56.849417 224.64655 56.550745 L 227.101808 50.959434 C 227.277497 50.603663 227.44001 50.195185 227.593738 49.729609 C 227.743074 49.264032 227.97147 48.715003 228.270142 48.086914 C 228.524891 47.33145 229.038782 46.953718 229.8206 46.953718 C 230.070957 46.953718 230.360844 47.028386 230.690262 47.177722 C 231.094347 47.432471 231.270036 47.757497 231.217329 48.161582 Z M 249.844786 47.177722 C 250.275224 47.177722 250.56072 47.29192 250.714448 47.520316 C 250.863784 47.74432 250.890137 48.047384 250.789116 48.425116 C 249.958984 51.925725 249.102498 54.609379 248.21966 56.471685 C 247.76726 57.508252 247.125994 59.041141 246.29147 61.083529 C 245.83907 62.243078 245.430592 63.178623 245.066037 63.898949 C 244.701482 64.614883 244.240298 65.313248 243.686876 65.994044 C 242.123242 67.781683 240.410271 68.914879 238.547965 69.393632 C 237.792501 69.595674 236.922839 69.696696 235.938979 69.696696 C 234.555426 69.696696 233.158696 69.406808 231.74879 68.827034 C 230.813244 68.427341 230.044603 67.781683 229.442868 66.903236 C 228.511714 65.466976 227.866056 63.591493 227.514678 61.272395 C 227.413656 60.389556 227.365342 59.041141 227.365342 57.227149 L 227.365342 54.508357 C 227.365342 52.241966 227.387303 50.542172 227.44001 49.408976 C 227.44001 47.190899 227.488324 43.967 227.589346 39.737281 L 227.514678 39.737281 L 227.44001 35.955569 C 227.44001 32.353939 227.488324 26.938317 227.589346 19.708703 L 227.589346 19.256303 C 227.589346 18.676528 227.866056 18.263658 228.42387 18.008909 C 228.62152 17.907887 228.990468 17.806866 229.517536 17.710237 C 231.379842 17.530155 233.084028 17.907887 234.616917 18.843433 C 235.451441 19.370501 235.864311 20.125965 235.864311 21.109825 C 235.864311 26.046693 235.890664 29.762522 235.938979 32.252917 L 236.018039 43.0622 C 236.018039 45.227571 235.965332 48.376801 235.864311 52.505499 L 235.864311 58.250539 C 235.965332 60.139199 236.167375 61.737971 236.470439 63.046856 C 236.720796 63.903342 237.340101 64.74665 238.319569 65.581174 C 238.596279 65.629489 238.785145 65.603136 238.886167 65.502114 C 239.290252 65.102421 239.492295 64.900378 239.492295 64.900378 C 240.120384 64.065854 240.563999 63.450942 240.814357 63.046856 L 245.83907 53.03696 C 246.29147 52.079453 246.937128 50.61684 247.76726 48.653512 C 248.070324 47.82338 248.663275 47.33145 249.541722 47.177722 Z M 269.49124 47.177722 C 269.917286 47.177722 270.207174 47.29192 270.360902 47.520316 C 270.510238 47.74432 270.536591 48.047384 270.43557 48.425116 C 269.605438 51.925725 268.748953 54.609379 267.866114 56.471685 C 267.413714 57.508252 266.772448 59.041141 265.937924 61.083529 C 265.485524 62.243078 265.077047 63.178623 264.712491 63.898949 C 264.347936 64.614883 263.886752 65.313248 263.33333 65.994044 C 261.769696 67.781683 260.056725 68.914879 258.194419 69.393632 C 257.438955 69.595674 256.569293 69.696696 255.585433 69.696696 C 254.20188 69.696696 252.80515 69.406808 251.390851 68.827034 C 250.459698 68.427341 249.691058 67.781683 249.089322 66.903236 C 248.158169 65.466976 247.51251 63.591493 247.161132 61.272395 C 247.060111 60.389556 247.011796 59.041141 247.011796 57.227149 L 247.011796 54.508357 C 247.011796 52.241966 247.033757 50.542172 247.086464 49.408976 C 247.086464 47.190899 247.134778 43.967 247.2358 39.737281 L 247.161132 39.737281 L 247.086464 35.955569 C 247.086464 32.353939 247.134778 26.938317 247.2358 19.708703 L 247.2358 19.256303 C 247.2358 18.676528 247.51251 18.263658 248.065932 18.008909 C 248.267974 17.907887 248.63253 17.806866 249.16399 17.710237 C 251.026296 17.530155 252.72609 17.907887 254.263371 18.843433 C 255.093503 19.370501 255.510765 20.125965 255.510765 21.109825 C 255.510765 26.046693 255.537118 29.762522 255.585433 32.252917 L 255.664493 43.0622 C 255.664493 45.227571 255.611786 48.376801 255.510765 52.505499 L 255.510765 58.250539 C 255.611786 60.139199 255.813829 61.737971 256.116893 63.046856 C 256.36725 63.903342 256.986555 64.74665 257.966023 65.581174 C 258.242733 65.629489 258.431599 65.603136 258.532621 65.502114 C 258.936706 65.102421 259.138749 64.900378 259.138749 64.900378 C 259.766838 64.065854 260.210453 63.450942 260.460811 63.046856 L 265.485524 53.03696 C 265.937924 52.079453 266.583582 50.61684 267.413714 48.653512 C 267.716778 47.82338 268.305337 47.33145 269.188176 47.177722 Z M 294.500609 48.578844 C 293.920835 49.509997 293.253215 50.300599 292.497751 50.959434 C 291.03953 52.342987 289.462719 53.401515 287.776102 54.130625 C 287.249034 54.332668 286.959147 54.723577 286.90644 55.303351 C 286.603376 56.787926 286.036778 58.413052 285.206646 60.174337 C 284.578557 61.461261 283.83627 62.62081 282.979784 63.652984 C 281.94761 64.78618 280.700216 65.528468 279.237603 65.879846 C 278.056092 66.156557 276.944858 66.297108 275.912683 66.297108 C 275.157219 66.297108 274.340264 66.22244 273.457425 66.068712 C 271.595119 65.69098 270.172036 64.610491 269.188176 62.822853 C 268.50738 61.737971 267.940782 60.213867 267.488382 58.250539 C 266.934961 56.032462 266.653858 53.550851 266.653858 50.805706 C 266.653858 48.991714 266.983275 46.597947 267.637718 43.628798 C 268.217492 41.283347 269.45171 39.144329 271.340369 37.202963 C 272.372544 36.170788 273.874687 35.656897 275.838015 35.656897 C 277.652007 35.656897 279.439645 36.09612 281.20093 36.978959 L 282.334126 37.659755 C 283.695718 38.590908 284.424829 39.899793 284.52585 41.586411 C 284.52585 42.065164 284.705932 42.583447 285.05731 43.136868 C 286.238821 44.696111 286.959147 46.562809 287.209504 48.72818 L 287.4379 51.183438 C 287.4379 51.512855 287.574059 51.587523 287.85077 51.411834 C 288.707255 50.906727 289.440758 50.410405 290.042494 49.918475 C 290.648622 49.426545 291.127375 48.842378 291.478754 48.161582 C 291.781818 47.656475 292.322062 47.406118 293.103879 47.406118 C 293.731969 47.406118 294.175584 47.507139 294.425941 47.709182 C 294.680691 47.959539 294.702652 48.249427 294.500609 48.578844 Z M 280.937397 54.130625 C 279.905222 53.72654 279.110228 53.159942 278.556807 52.430832 C 277.625654 51.297636 277.059056 50.212754 276.857013 49.18058 C 276.707677 48.451469 276.628617 47.731143 276.628617 47.028386 C 276.628617 45.36373 277.120547 43.967 278.104407 42.833804 C 278.30645 42.631762 278.407471 42.469249 278.407471 42.341874 C 278.407471 42.218892 278.332803 42.016849 278.179075 41.740139 C 278.029739 41.538096 277.840873 41.538096 277.612477 41.740139 C 277.010741 42.719606 276.580302 43.602445 276.329945 44.384262 C 275.548128 46.698969 275.157219 48.868731 275.157219 50.880374 C 275.157219 53.981289 275.622796 56.976792 276.553949 59.875665 C 276.65497 60.174337 276.782345 60.45544 276.931681 60.705797 C 277.085409 60.956154 277.208392 61.246041 277.309413 61.575459 C 277.36212 61.724795 277.485102 61.751148 277.687145 61.650127 L 277.955071 61.421731 C 279.641688 59.357382 280.774884 57.139304 281.354659 54.771891 C 281.402973 54.547887 281.41615 54.407336 281.389796 54.359021 C 281.367835 54.306315 281.214107 54.231647 280.937397 54.130625 Z M 282.259458 49.105912 C 282.259458 48.021031 282.083769 47.015209 281.732391 46.084056 L 281.503995 45.930328 C 281.402973 45.930328 281.354659 46.009388 281.354659 46.158724 C 281.178969 46.685792 281.091125 47.25239 281.091125 47.858518 C 281.091125 48.842378 281.328305 49.848199 281.807059 50.880374 L 282.110123 51.183438 C 282.211144 50.151263 282.259458 49.45729 282.259458 49.105912 Z M 282.259458 49.105912 " stroke="#ffffff" stroke-width="17.411715" stroke-opacity="1" stroke-miterlimit="4"/><g fill="#000000" fill-opacity="1"><g transform="translate(59.364461, 211.054901)"><g><path d="M 12.46875 1.3125 C 9.707031 1.3125 7.234375 0.757812 5.046875 -0.34375 C 2.128906 -1.726562 0.289062 -4.085938 -0.46875 -7.421875 C -0.601562 -8.253906 -0.671875 -9.0625 -0.671875 -9.84375 C -0.671875 -10.332031 -0.625 -11.039062 -0.53125 -11.96875 C -0.3125 -13.84375 0.0390625 -15.519531 0.53125 -17 C 1.132812 -18.832031 1.832031 -20.367188 2.625 -21.609375 C 3.757812 -23.535156 5.316406 -25.210938 7.296875 -26.640625 C 7.472656 -26.734375 7.5625 -26.8125 7.5625 -26.875 C 7.5625 -26.945312 7.472656 -27.050781 7.296875 -27.1875 C 6.367188 -27.832031 5.679688 -28.332031 5.234375 -28.6875 C 4.179688 -29.5625 3.285156 -30.679688 2.546875 -32.046875 C 1.859375 -33.265625 1.515625 -34.53125 1.515625 -35.84375 C 1.515625 -36.207031 1.554688 -36.710938 1.640625 -37.359375 C 2.378906 -40.992188 3.867188 -44.0625 6.109375 -46.5625 C 7.453125 -48.039062 9.269531 -48.78125 11.5625 -48.78125 C 12.207031 -48.78125 13.257812 -48.648438 14.71875 -48.390625 C 16.820312 -47.960938 18.523438 -47.351562 19.828125 -46.5625 C 20.960938 -45.894531 21.859375 -45.144531 22.515625 -44.3125 C 23.097656 -43.53125 23.390625 -42.703125 23.390625 -41.828125 C 23.390625 -41.242188 23.207031 -40.582031 22.84375 -39.84375 C 22.375 -38.925781 21.710938 -38.097656 20.859375 -37.359375 C 20.253906 -36.796875 19.492188 -36.515625 18.578125 -36.515625 C 17.304688 -36.515625 16.144531 -36.929688 15.09375 -37.765625 C 14.707031 -38.054688 14.5625 -38.359375 14.65625 -38.671875 C 14.695312 -38.941406 14.972656 -39.078125 15.484375 -39.078125 L 15.625 -39.078125 C 15.976562 -39.078125 16.328125 -39.289062 16.671875 -39.71875 C 17.203125 -40.4375 17.582031 -41.097656 17.8125 -41.703125 C 17.96875 -42.054688 18.046875 -42.425781 18.046875 -42.8125 C 18.046875 -43.125 18.019531 -43.347656 17.96875 -43.484375 C 17.8125 -44.265625 17.351562 -44.65625 16.59375 -44.65625 C 16.257812 -44.738281 15.914062 -44.738281 15.5625 -44.65625 C 14.632812 -44.65625 13.867188 -44.363281 13.265625 -43.78125 C 12.304688 -42.8125 11.582031 -41.847656 11.09375 -40.890625 C 10.300781 -39.546875 9.695312 -38.347656 9.28125 -37.296875 C 8.875 -36.242188 8.671875 -35.125 8.671875 -33.9375 C 8.671875 -32.050781 9.5 -30.460938 11.15625 -29.171875 C 11.425781 -28.941406 11.796875 -28.757812 12.265625 -28.625 C 12.578125 -28.539062 13.210938 -28.382812 14.171875 -28.15625 C 15.273438 -27.90625 16.265625 -27.535156 17.140625 -27.046875 C 17.492188 -26.828125 17.863281 -26.476562 18.25 -26 C 18.382812 -25.875 18.453125 -25.71875 18.453125 -25.53125 C 18.453125 -25.257812 18.289062 -25.023438 17.96875 -24.828125 C 17.414062 -24.554688 16.957031 -24.421875 16.59375 -24.421875 C 15.71875 -24.472656 14.753906 -24.128906 13.703125 -23.390625 C 11.960938 -22.242188 10.488281 -20.617188 9.28125 -18.515625 C 7.644531 -15.578125 6.828125 -12.472656 6.828125 -9.203125 C 6.828125 -7.972656 7.003906 -6.875 7.359375 -5.90625 C 7.921875 -4.25 8.953125 -3.066406 10.453125 -2.359375 C 10.785156 -2.148438 11.265625 -1.910156 11.890625 -1.640625 C 12.273438 -1.421875 12.800781 -1.351562 13.46875 -1.4375 C 14.164062 -1.625 14.953125 -1.953125 15.828125 -2.421875 C 18.578125 -4.015625 20.78125 -5.914062 22.4375 -8.125 L 24.09375 -10.515625 L 27.1875 -15.21875 C 28.28125 -16.945312 29.003906 -18.289062 29.359375 -19.25 C 29.472656 -19.5 29.617188 -19.664062 29.796875 -19.75 C 30.160156 -19.84375 30.429688 -19.890625 30.609375 -19.890625 C 30.992188 -19.890625 31.316406 -19.820312 31.578125 -19.6875 C 31.941406 -19.550781 32.054688 -19.296875 31.921875 -18.921875 L 30.28125 -15.5625 L 28.15625 -11.484375 L 26.71875 -8.734375 C 26.289062 -7.910156 25.523438 -6.722656 24.421875 -5.171875 C 23.191406 -3.472656 21.488281 -1.925781 19.3125 -0.53125 C 17.457031 0.695312 15.441406 1.3125 13.265625 1.3125 Z M 12.46875 1.3125 "/></g></g></g><g fill="#000000" fill-opacity="1"><g transform="translate(88.596877, 211.054901)"><g><path d="M 19.3125 -20.296875 C 19.695312 -20.296875 19.957031 -20.191406 20.09375 -19.984375 C 20.226562 -19.785156 20.25 -19.519531 20.15625 -19.1875 C 19.414062 -16.070312 18.65625 -13.6875 17.875 -12.03125 C 17.46875 -11.113281 16.894531 -9.742188 16.15625 -7.921875 C 15.757812 -6.898438 15.394531 -6.066406 15.0625 -5.421875 C 14.738281 -4.785156 14.332031 -4.164062 13.84375 -3.5625 C 12.457031 -1.96875 10.9375 -0.957031 9.28125 -0.53125 C 8.601562 -0.351562 7.828125 -0.265625 6.953125 -0.265625 C 5.722656 -0.265625 4.476562 -0.523438 3.21875 -1.046875 C 2.394531 -1.398438 1.710938 -1.96875 1.171875 -2.75 C 0.347656 -4.03125 -0.21875 -5.703125 -0.53125 -7.765625 C -0.625 -8.546875 -0.671875 -9.742188 -0.671875 -11.359375 L -0.671875 -13.78125 C -0.671875 -15.789062 -0.648438 -17.300781 -0.609375 -18.3125 C -0.609375 -20.28125 -0.5625 -23.144531 -0.46875 -26.90625 L -0.53125 -26.90625 L -0.609375 -30.28125 C -0.609375 -33.476562 -0.5625 -38.289062 -0.46875 -44.71875 L -0.46875 -45.125 C -0.46875 -45.632812 -0.222656 -46.003906 0.265625 -46.234375 C 0.441406 -46.328125 0.769531 -46.414062 1.25 -46.5 C 2.90625 -46.65625 4.414062 -46.320312 5.78125 -45.5 C 6.519531 -45.019531 6.890625 -44.347656 6.890625 -43.484375 C 6.890625 -39.085938 6.910156 -35.78125 6.953125 -33.5625 L 7.015625 -23.953125 C 7.015625 -22.023438 6.972656 -19.226562 6.890625 -15.5625 L 6.890625 -10.453125 C 6.972656 -8.765625 7.148438 -7.34375 7.421875 -6.1875 C 7.648438 -5.425781 8.203125 -4.675781 9.078125 -3.9375 C 9.316406 -3.882812 9.484375 -3.90625 9.578125 -4 C 9.929688 -4.351562 10.109375 -4.53125 10.109375 -4.53125 C 10.671875 -5.269531 11.066406 -5.820312 11.296875 -6.1875 L 15.765625 -15.09375 C 16.160156 -15.9375 16.726562 -17.234375 17.46875 -18.984375 C 17.738281 -19.722656 18.265625 -20.160156 19.046875 -20.296875 Z M 19.3125 -20.296875 "/></g></g></g><g fill="#000000" fill-opacity="1"><g transform="translate(106.069126, 211.054901)"><g/></g></g><g fill="#000000" fill-opacity="1"><g transform="translate(129.253457, 211.054901)"><g><path d="M -0.671875 -19.1875 C -0.671875 -21.019531 -0.535156 -23.453125 -0.265625 -26.484375 C 0.00390625 -29.484375 0.617188 -32.378906 1.578125 -35.171875 C 2.492188 -37.867188 3.570312 -40.019531 4.8125 -41.625 C 7.65625 -45.4375 11.347656 -47.957031 15.890625 -49.1875 C 17.953125 -49.75 20.035156 -50.03125 22.140625 -50.03125 C 26.867188 -50.03125 31.070312 -48.765625 34.75 -46.234375 C 37.363281 -44.441406 39.109375 -42.125 39.984375 -39.28125 C 40.628906 -37.039062 40.953125 -35.132812 40.953125 -33.5625 C 40.953125 -28.613281 39.1875 -24.804688 35.65625 -22.140625 L 34.671875 -21.46875 C 34.535156 -21.332031 34.535156 -21.222656 34.671875 -21.140625 L 35.015625 -20.859375 C 36.128906 -20.117188 37.046875 -19.25 37.765625 -18.25 C 38.015625 -17.957031 38.179688 -17.8125 38.265625 -17.8125 C 38.359375 -17.8125 38.445312 -17.847656 38.53125 -17.921875 C 38.625 -18.003906 38.71875 -18.066406 38.8125 -18.109375 L 40.890625 -19.125 C 41.941406 -19.726562 43.082031 -20.207031 44.3125 -20.5625 C 44.445312 -20.601562 44.628906 -20.625 44.859375 -20.625 C 45.191406 -20.625 45.535156 -20.554688 45.890625 -20.421875 C 46.253906 -20.335938 46.4375 -20.179688 46.4375 -19.953125 L 46.4375 -19.828125 C 46.4375 -19.691406 46.378906 -19.585938 46.265625 -19.515625 C 46.148438 -19.453125 46.070312 -19.382812 46.03125 -19.3125 L 44.390625 -18.375 L 39.640625 -15.890625 C 39.441406 -15.804688 39.320312 -15.726562 39.28125 -15.65625 C 39.238281 -15.59375 39.257812 -15.46875 39.34375 -15.28125 L 39.78125 -13.703125 C 39.957031 -13.097656 40.046875 -12.382812 40.046875 -11.5625 C 40.046875 -10.726562 39.957031 -10.019531 39.78125 -9.4375 C 39.269531 -7.507812 38.722656 -5.96875 38.140625 -4.8125 C 36.703125 -1.914062 34.359375 -0.0078125 31.109375 0.90625 C 29.859375 1.21875 28.503906 1.375 27.046875 1.375 C 26.128906 1.375 25.4375 1.351562 24.96875 1.3125 C 23.914062 1.175781 22.816406 0.804688 21.671875 0.203125 C 20.441406 -0.441406 19.691406 -1.425781 19.421875 -2.75 C 19.347656 -3.019531 19.222656 -3.046875 19.046875 -2.828125 C 17.910156 -1.816406 16.242188 -1.03125 14.046875 -0.46875 C 13.304688 -0.289062 12.476562 -0.203125 11.5625 -0.203125 C 9.769531 -0.203125 8 -0.613281 6.25 -1.4375 C 5.019531 -2.050781 3.988281 -3.039062 3.15625 -4.40625 C 1.5 -6.976562 0.445312 -9.664062 0 -12.46875 C -0.445312 -15.582031 -0.671875 -17.820312 -0.671875 -19.1875 Z M 14.171875 -32.765625 L 14.046875 -35.3125 L 14.109375 -35.3125 C 14.109375 -36.769531 14.128906 -37.867188 14.171875 -38.609375 C 14.171875 -39.253906 14.351562 -39.710938 14.71875 -39.984375 C 15.09375 -40.253906 15.664062 -40.390625 16.4375 -40.390625 C 17.457031 -40.390625 18.472656 -40.140625 19.484375 -39.640625 C 20.984375 -38.898438 21.644531 -37.796875 21.46875 -36.328125 C 21.425781 -35.921875 21.40625 -35.347656 21.40625 -34.609375 C 21.40625 -34.023438 21.425781 -33.316406 21.46875 -32.484375 C 21.507812 -31.660156 21.554688 -31.035156 21.609375 -30.609375 L 21.875 -26.078125 C 21.96875 -25.242188 22.023438 -24.539062 22.046875 -23.96875 C 22.066406 -23.394531 22.078125 -22.910156 22.078125 -22.515625 C 22.117188 -22.335938 22.164062 -22.226562 22.21875 -22.1875 C 22.28125 -22.15625 22.398438 -22.195312 22.578125 -22.3125 C 23.628906 -22.84375 24.75 -23.15625 25.9375 -23.25 C 26.632812 -23.25 27.273438 -23.507812 27.859375 -24.03125 L 28.828125 -24.703125 C 30.523438 -25.953125 31.769531 -27.648438 32.5625 -29.796875 C 33.226562 -31.546875 33.5625 -33.304688 33.5625 -35.078125 C 33.5625 -35.546875 33.519531 -36.195312 33.4375 -37.03125 C 33.207031 -38.820312 32.828125 -40.351562 32.296875 -41.625 C 31.328125 -43.957031 29.78125 -45.40625 27.65625 -45.96875 C 26.644531 -46.144531 25.867188 -46.234375 25.328125 -46.234375 C 23.628906 -46.273438 21.769531 -46.050781 19.75 -45.5625 C 17.738281 -45.09375 15.445312 -44.039062 12.875 -42.40625 C 10.851562 -41.101562 9.125 -39.242188 7.6875 -36.828125 C 5.925781 -33.640625 4.851562 -29.804688 4.46875 -25.328125 C 4.375 -23.492188 4.328125 -22.117188 4.328125 -21.203125 C 4.328125 -20.054688 4.351562 -19.203125 4.40625 -18.640625 C 4.539062 -16.628906 4.773438 -14.863281 5.109375 -13.34375 C 5.691406 -10.632812 6.8125 -7.976562 8.46875 -5.375 C 9.070312 -4.539062 9.617188 -3.9375 10.109375 -3.5625 C 10.335938 -3.332031 10.570312 -3.21875 10.8125 -3.21875 C 11 -3.21875 11.222656 -3.285156 11.484375 -3.421875 C 12.003906 -3.710938 12.46875 -4.296875 12.875 -5.171875 C 13.875 -7.140625 14.421875 -9.523438 14.515625 -12.328125 C 14.554688 -14.796875 14.578125 -18.523438 14.578125 -23.515625 C 14.578125 -24.429688 14.535156 -25.8125 14.453125 -27.65625 C 14.359375 -29.875 14.265625 -31.578125 14.171875 -32.765625 Z M 22.578125 -18.453125 C 22.398438 -18.453125 22.28125 -18.425781 22.21875 -18.375 C 22.164062 -18.332031 22.140625 -18.222656 22.140625 -18.046875 L 22.140625 -13.78125 C 22.140625 -11.507812 21.9375 -9.523438 21.53125 -7.828125 L 21.53125 -7.296875 C 21.664062 -7.296875 21.757812 -7.316406 21.8125 -7.359375 L 23.453125 -8.875 C 24.503906 -9.832031 26.273438 -11.050781 28.765625 -12.53125 C 29.453125 -12.976562 30.523438 -13.617188 31.984375 -14.453125 C 32.234375 -14.585938 32.335938 -14.765625 32.296875 -14.984375 C 31.867188 -16.597656 31.21875 -17.84375 30.34375 -18.71875 C 30.164062 -18.9375 29.875 -19.023438 29.46875 -18.984375 C 27.71875 -18.628906 25.421875 -18.453125 22.578125 -18.453125 Z M 24.03125 -3.15625 C 24.03125 -2.457031 24.296875 -1.929688 24.828125 -1.578125 C 25.023438 -1.484375 25.148438 -1.4375 25.203125 -1.4375 C 25.242188 -1.4375 25.46875 -1.503906 25.875 -1.640625 L 27.046875 -2.28125 L 29.03125 -3.9375 C 29.675781 -4.46875 30.203125 -5.171875 30.609375 -6.046875 C 31.304688 -7.390625 31.890625 -8.925781 32.359375 -10.65625 L 32.359375 -11.21875 C 32.359375 -11.351562 32.253906 -11.398438 32.046875 -11.359375 L 31.78125 -11.21875 C 29.207031 -9.5625 27.328125 -8.070312 26.140625 -6.75 C 25.597656 -6.101562 25.050781 -5.363281 24.5 -4.53125 C 24.363281 -4.351562 24.257812 -4.113281 24.1875 -3.8125 C 24.125 -3.507812 24.070312 -3.289062 24.03125 -3.15625 Z M 24.03125 -3.15625 "/></g></g></g><g fill="#000000" fill-opacity="1"><g transform="translate(173.034881, 211.054901)"><g><path d="M 24.09375 -19.046875 C 23.570312 -18.222656 22.976562 -17.519531 22.3125 -16.9375 C 21.007812 -15.707031 19.609375 -14.765625 18.109375 -14.109375 C 17.640625 -13.929688 17.382812 -13.585938 17.34375 -13.078125 C 17.070312 -11.753906 16.566406 -10.304688 15.828125 -8.734375 C 15.265625 -7.585938 14.601562 -6.554688 13.84375 -5.640625 C 12.925781 -4.628906 11.816406 -3.96875 10.515625 -3.65625 C 9.460938 -3.414062 8.476562 -3.296875 7.5625 -3.296875 C 6.882812 -3.296875 6.15625 -3.363281 5.375 -3.5 C 3.71875 -3.832031 2.453125 -4.796875 1.578125 -6.390625 C 0.972656 -7.347656 0.46875 -8.703125 0.0625 -10.453125 C -0.425781 -12.421875 -0.671875 -14.625 -0.671875 -17.0625 C -0.671875 -18.675781 -0.378906 -20.804688 0.203125 -23.453125 C 0.710938 -25.535156 1.8125 -27.441406 3.5 -29.171875 C 4.414062 -30.085938 5.75 -30.546875 7.5 -30.546875 C 9.101562 -30.546875 10.691406 -30.148438 12.265625 -29.359375 L 13.265625 -28.765625 C 14.484375 -27.929688 15.132812 -26.765625 15.21875 -25.265625 C 15.21875 -24.835938 15.375 -24.378906 15.6875 -23.890625 C 16.738281 -22.503906 17.378906 -20.847656 17.609375 -18.921875 L 17.8125 -16.734375 C 17.8125 -16.441406 17.929688 -16.375 18.171875 -16.53125 C 18.929688 -16.976562 19.582031 -17.421875 20.125 -17.859375 C 20.664062 -18.296875 21.09375 -18.816406 21.40625 -19.421875 C 21.675781 -19.867188 22.15625 -20.09375 22.84375 -20.09375 C 23.40625 -20.09375 23.800781 -20.003906 24.03125 -19.828125 C 24.25 -19.597656 24.269531 -19.335938 24.09375 -19.046875 Z M 12.03125 -14.109375 C 11.113281 -14.472656 10.40625 -14.976562 9.90625 -15.625 C 9.082031 -16.632812 8.582031 -17.597656 8.40625 -18.515625 C 8.269531 -19.160156 8.203125 -19.796875 8.203125 -20.421875 C 8.203125 -21.898438 8.640625 -23.144531 9.515625 -24.15625 C 9.691406 -24.332031 9.78125 -24.476562 9.78125 -24.59375 C 9.78125 -24.707031 9.710938 -24.882812 9.578125 -25.125 C 9.441406 -25.3125 9.273438 -25.3125 9.078125 -25.125 C 8.535156 -24.257812 8.148438 -23.476562 7.921875 -22.78125 C 7.234375 -20.71875 6.890625 -18.789062 6.890625 -17 C 6.890625 -14.25 7.300781 -11.582031 8.125 -9 C 8.21875 -8.738281 8.332031 -8.492188 8.46875 -8.265625 C 8.601562 -8.035156 8.710938 -7.78125 8.796875 -7.5 C 8.847656 -7.363281 8.960938 -7.335938 9.140625 -7.421875 L 9.375 -7.625 C 10.875 -9.457031 11.878906 -11.429688 12.390625 -13.546875 C 12.441406 -13.742188 12.453125 -13.863281 12.421875 -13.90625 C 12.398438 -13.957031 12.269531 -14.023438 12.03125 -14.109375 Z M 13.203125 -18.578125 C 13.203125 -19.546875 13.046875 -20.441406 12.734375 -21.265625 L 12.53125 -21.40625 C 12.4375 -21.40625 12.390625 -21.335938 12.390625 -21.203125 C 12.234375 -20.734375 12.15625 -20.226562 12.15625 -19.6875 C 12.15625 -18.8125 12.367188 -17.914062 12.796875 -17 L 13.078125 -16.734375 C 13.160156 -17.648438 13.203125 -18.265625 13.203125 -18.578125 Z M 13.203125 -18.578125 "/></g></g></g><g fill="#000000" fill-opacity="1"><g transform="translate(194.505587, 211.054901)"><g><path d="M 26.78125 -19.75 L 26.40625 -18.453125 C 26.007812 -17.210938 25.304688 -15.304688 24.296875 -12.734375 L 23.75 -11.21875 C 23.101562 -9.5625 22.320312 -7.953125 21.40625 -6.390625 L 20.421875 -4.609375 C 19.554688 -3.054688 18.6875 -1.773438 17.8125 -0.765625 C 16.84375 0.304688 15.851562 0.953125 14.84375 1.171875 C 13.84375 1.347656 13.09375 1.4375 12.59375 1.4375 C 10.71875 1.4375 9.082031 0.84375 7.6875 -0.34375 C 7.15625 -0.8125 6.800781 -1.398438 6.625 -2.109375 C 6.195312 -3.585938 5.984375 -5.046875 5.984375 -6.484375 C 6.023438 -8.992188 6.238281 -11.425781 6.625 -13.78125 C 6.757812 -15.007812 6.847656 -15.828125 6.890625 -16.234375 C 7.066406 -18.160156 7.203125 -19.359375 7.296875 -19.828125 L 7.296875 -21.140625 C 7.296875 -21.453125 7.25 -21.640625 7.15625 -21.703125 C 7.0625 -21.773438 6.804688 -21.878906 6.390625 -22.015625 C 6.253906 -22.054688 5.851562 -22.179688 5.1875 -22.390625 C 4.53125 -22.609375 3.9375 -22.847656 3.40625 -23.109375 C 2.882812 -23.378906 2.410156 -23.6875 1.984375 -24.03125 L 0.671875 -25.125 C -0.179688 -25.800781 -0.5625 -26.832031 -0.46875 -28.21875 C -0.289062 -30.414062 -0.046875 -32.253906 0.265625 -33.734375 C 0.492188 -34.585938 0.84375 -35.40625 1.3125 -36.1875 C 1.757812 -36.925781 2.488281 -37.296875 3.5 -37.296875 C 4.65625 -37.296875 5.695312 -36.992188 6.625 -36.390625 C 7.382812 -35.847656 7.765625 -35.253906 7.765625 -34.609375 C 7.765625 -33.597656 7.695312 -32.613281 7.5625 -31.65625 C 7.289062 -29.632812 7.066406 -28.117188 6.890625 -27.109375 C 6.847656 -26.890625 6.828125 -26.519531 6.828125 -26 C 6.828125 -25.550781 7.050781 -25.257812 7.5 -25.125 C 7.625 -25.0625 7.816406 -25.003906 8.078125 -24.953125 C 8.335938 -24.910156 8.625 -24.828125 8.9375 -24.703125 C 9.320312 -24.566406 9.726562 -24.40625 10.15625 -24.21875 C 10.59375 -24.039062 11.0625 -23.863281 11.5625 -23.6875 C 11.644531 -23.625 12.015625 -23.410156 12.671875 -23.046875 C 14.035156 -22.222656 14.71875 -21.015625 14.71875 -19.421875 C 14.71875 -18.503906 14.671875 -17.476562 14.578125 -16.34375 C 14.492188 -15.21875 14.382812 -14.238281 14.25 -13.40625 C 14.15625 -12.863281 14.070312 -12.203125 14 -11.421875 C 13.9375 -10.640625 13.882812 -10.046875 13.84375 -9.640625 C 13.75 -8.335938 13.648438 -7.375 13.546875 -6.75 C 13.492188 -6.414062 13.503906 -6.03125 13.578125 -5.59375 C 13.660156 -5.15625 13.703125 -4.847656 13.703125 -4.671875 C 13.835938 -4.128906 13.90625 -3.582031 13.90625 -3.03125 C 13.90625 -2.9375 13.925781 -2.84375 13.96875 -2.75 C 14.019531 -2.664062 14.066406 -2.578125 14.109375 -2.484375 L 14.65625 -2.890625 C 14.875 -3.109375 15.332031 -3.679688 16.03125 -4.609375 C 17.320312 -6.347656 18.3125 -7.789062 19 -8.9375 C 19.6875 -10.082031 20.398438 -11.503906 21.140625 -13.203125 C 22.679688 -16.878906 23.597656 -19.0625 23.890625 -19.75 C 24.160156 -20.382812 24.664062 -20.703125 25.40625 -20.703125 C 25.800781 -20.703125 26.132812 -20.632812 26.40625 -20.5 C 26.5625 -20.445312 26.671875 -20.34375 26.734375 -20.1875 C 26.804688 -20.03125 26.820312 -19.882812 26.78125 -19.75 Z M 26.78125 -19.75 "/></g></g></g><g fill="#000000" fill-opacity="1"><g transform="translate(218.52993, 211.054901)"><g><path d="M 28.421875 -20.15625 C 28.648438 -20.15625 28.832031 -20.078125 28.96875 -19.921875 C 29.101562 -19.765625 29.144531 -19.539062 29.09375 -19.25 L 28.828125 -18.25 L 27.65625 -13.265625 C 27.070312 -10.472656 26.363281 -8.347656 25.53125 -6.890625 L 24.703125 -5.515625 C 23.691406 -3.941406 22.15625 -3.203125 20.09375 -3.296875 C 18.03125 -3.296875 16.472656 -4.101562 15.421875 -5.71875 C 15.085938 -6.113281 14.851562 -6.503906 14.71875 -6.890625 C 14.539062 -7.296875 14.269531 -8.171875 13.90625 -9.515625 C 13.769531 -8.953125 13.648438 -8.601562 13.546875 -8.46875 L 12.671875 -6.484375 C 11.878906 -4.867188 10.523438 -3.875 8.609375 -3.5 C 8.046875 -3.363281 7.492188 -3.296875 6.953125 -3.296875 C 5.898438 -3.296875 4.828125 -3.550781 3.734375 -4.0625 C 2.160156 -4.800781 1.09375 -5.851562 0.53125 -7.21875 C -0.0507812 -8.65625 -0.40625 -10.210938 -0.53125 -11.890625 C -0.53125 -12.222656 -0.578125 -12.660156 -0.671875 -13.203125 C -0.828125 -17.234375 -0.125 -20.929688 1.4375 -24.296875 C 2.132812 -25.816406 2.921875 -26.957031 3.796875 -27.71875 C 5.335938 -29.15625 7.070312 -29.894531 9 -29.9375 C 10.707031 -29.9375 12.175781 -29.679688 13.40625 -29.171875 C 13.695312 -29.078125 13.863281 -29.03125 13.90625 -29.03125 C 14.082031 -28.988281 14.171875 -29.035156 14.171875 -29.171875 C 14.222656 -29.253906 14.25 -29.375 14.25 -29.53125 L 14.515625 -37.5 L 14.65625 -43.78125 C 14.65625 -43.957031 14.675781 -44.191406 14.71875 -44.484375 C 14.757812 -44.773438 14.800781 -45.046875 14.84375 -45.296875 C 15.007812 -45.960938 15.25 -46.4375 15.5625 -46.71875 C 15.875 -47 16.351562 -47.140625 17 -47.140625 C 18.226562 -47.097656 19.394531 -46.75 20.5 -46.09375 C 21.550781 -45.445312 22.078125 -44.460938 22.078125 -43.140625 C 22.078125 -39.691406 22.054688 -37.128906 22.015625 -35.453125 C 21.960938 -32.734375 21.828125 -30 21.609375 -27.25 C 21.515625 -25.769531 21.421875 -24.628906 21.328125 -23.828125 L 21.0625 -20.15625 C 21.019531 -19.414062 21 -18.296875 21 -16.796875 C 21 -14.921875 21.046875 -13.519531 21.140625 -12.59375 C 21.265625 -11.164062 21.488281 -9.945312 21.8125 -8.9375 L 22.140625 -8.0625 C 22.210938 -7.96875 22.28125 -7.921875 22.34375 -7.921875 C 22.40625 -7.921875 22.460938 -7.945312 22.515625 -8 C 22.554688 -8.082031 22.617188 -8.179688 22.703125 -8.296875 C 22.796875 -8.410156 22.867188 -8.554688 22.921875 -8.734375 C 23.234375 -9.335938 23.664062 -10.28125 24.21875 -11.5625 C 24.914062 -13.4375 25.625 -15.539062 26.34375 -17.875 L 26.90625 -19.3125 C 27.175781 -19.875 27.640625 -20.15625 28.296875 -20.15625 Z M 13.78125 -24.703125 C 13.78125 -25.171875 13.519531 -25.582031 13 -25.9375 L 12.671875 -26.203125 L 12.265625 -26.34375 C 11.878906 -26.25 11.617188 -26.160156 11.484375 -26.078125 C 10.566406 -25.492188 9.765625 -24.53125 9.078125 -23.1875 C 7.617188 -20.382812 6.890625 -17.335938 6.890625 -14.046875 C 6.890625 -13.078125 6.957031 -12.113281 7.09375 -11.15625 C 7.269531 -9.90625 7.492188 -9.007812 7.765625 -8.46875 L 8.0625 -8.125 C 8.238281 -8.3125 8.328125 -8.40625 8.328125 -8.40625 L 9.140625 -9.984375 C 9.742188 -11.171875 10.394531 -12.835938 11.09375 -14.984375 C 12.28125 -18.210938 13.148438 -21.289062 13.703125 -24.21875 Z M 13.78125 -24.703125 "/></g></g></g><g fill="#000000" fill-opacity="1"><g transform="translate(244.872705, 211.054901)"><g><path d="M -0.140625 -34.40625 C -0.140625 -34.582031 -0.101562 -34.890625 -0.03125 -35.328125 C 0.03125 -35.765625 0.109375 -36.160156 0.203125 -36.515625 C 0.378906 -37.253906 0.90625 -37.738281 1.78125 -37.96875 C 1.957031 -38.03125 2.238281 -38.0625 2.625 -38.0625 C 3.070312 -38.0625 3.753906 -37.960938 4.671875 -37.765625 C 5.367188 -37.628906 6.019531 -37.335938 6.625 -36.890625 C 7.207031 -36.460938 7.5 -35.890625 7.5 -35.171875 C 7.5 -34.796875 7.460938 -34.398438 7.390625 -33.984375 C 7.328125 -33.566406 7.269531 -33.226562 7.21875 -32.96875 C 7.175781 -32.644531 7.066406 -32.316406 6.890625 -31.984375 C 6.710938 -31.453125 6.34375 -31.117188 5.78125 -30.984375 C 5.082031 -30.828125 4.710938 -30.75 4.671875 -30.75 C 3.304688 -30.851562 2.253906 -31.109375 1.515625 -31.515625 C 0.328125 -32.117188 -0.222656 -33.082031 -0.140625 -34.40625 Z M 17.0625 -19.421875 L 16.859375 -18.578125 L 14.375 -10.375 C 14.113281 -9.550781 13.769531 -8.828125 13.34375 -8.203125 C 12.019531 -5.804688 11.269531 -4.445312 11.09375 -4.125 C 10.90625 -3.8125 10.660156 -3.46875 10.359375 -3.09375 C 10.054688 -2.726562 9.816406 -2.457031 9.640625 -2.28125 C 8.859375 -1.363281 7.726562 -0.828125 6.25 -0.671875 C 4.363281 -0.578125 2.71875 -0.992188 1.3125 -1.921875 C 0.53125 -2.390625 0.0234375 -3.125 -0.203125 -4.125 C -0.421875 -5.738281 -0.53125 -7.1875 -0.53125 -8.46875 C -0.582031 -9.25 -0.609375 -10.390625 -0.609375 -11.890625 C -0.609375 -13.640625 -0.5625 -15.582031 -0.46875 -17.71875 C -0.382812 -19.863281 -0.316406 -21.375 -0.265625 -22.25 L -0.140625 -24.625 L -0.140625 -24.765625 C -0.0859375 -25.367188 0.046875 -25.789062 0.265625 -26.03125 C 0.492188 -26.28125 0.910156 -26.429688 1.515625 -26.484375 C 1.734375 -26.546875 2.101562 -26.578125 2.625 -26.578125 C 3.757812 -26.578125 4.789062 -26.34375 5.71875 -25.875 C 5.800781 -25.832031 6.125 -25.648438 6.6875 -25.328125 C 7.132812 -24.992188 7.335938 -24.492188 7.296875 -23.828125 L 7.09375 -19.046875 L 7.015625 -16.796875 L 7.09375 -16.796875 L 7.015625 -14.78125 C 6.929688 -13.03125 6.890625 -11.734375 6.890625 -10.890625 C 6.890625 -10.015625 6.929688 -8.75 7.015625 -7.09375 L 7.09375 -5.375 C 7.09375 -5.28125 7.160156 -5.171875 7.296875 -5.046875 L 7.5625 -5.171875 L 7.828125 -5.515625 L 9.28125 -8 L 10.1875 -9.515625 C 10.445312 -10.046875 10.660156 -10.519531 10.828125 -10.9375 C 11.003906 -11.351562 11.132812 -11.695312 11.21875 -11.96875 L 13.40625 -16.9375 C 13.5625 -17.25 13.707031 -17.609375 13.84375 -18.015625 C 13.976562 -18.429688 14.179688 -18.921875 14.453125 -19.484375 C 14.671875 -20.160156 15.128906 -20.5 15.828125 -20.5 C 16.046875 -20.5 16.300781 -20.429688 16.59375 -20.296875 C 16.957031 -20.066406 17.113281 -19.773438 17.0625 -19.421875 Z M 17.0625 -19.421875 "/></g></g></g><g fill="#000000" fill-opacity="1"><g transform="translate(259.186509, 211.054901)"><g><path d="M 19.3125 -20.296875 C 19.695312 -20.296875 19.957031 -20.191406 20.09375 -19.984375 C 20.226562 -19.785156 20.25 -19.519531 20.15625 -19.1875 C 19.414062 -16.070312 18.65625 -13.6875 17.875 -12.03125 C 17.46875 -11.113281 16.894531 -9.742188 16.15625 -7.921875 C 15.757812 -6.898438 15.394531 -6.066406 15.0625 -5.421875 C 14.738281 -4.785156 14.332031 -4.164062 13.84375 -3.5625 C 12.457031 -1.96875 10.9375 -0.957031 9.28125 -0.53125 C 8.601562 -0.351562 7.828125 -0.265625 6.953125 -0.265625 C 5.722656 -0.265625 4.476562 -0.523438 3.21875 -1.046875 C 2.394531 -1.398438 1.710938 -1.96875 1.171875 -2.75 C 0.347656 -4.03125 -0.21875 -5.703125 -0.53125 -7.765625 C -0.625 -8.546875 -0.671875 -9.742188 -0.671875 -11.359375 L -0.671875 -13.78125 C -0.671875 -15.789062 -0.648438 -17.300781 -0.609375 -18.3125 C -0.609375 -20.28125 -0.5625 -23.144531 -0.46875 -26.90625 L -0.53125 -26.90625 L -0.609375 -30.28125 C -0.609375 -33.476562 -0.5625 -38.289062 -0.46875 -44.71875 L -0.46875 -45.125 C -0.46875 -45.632812 -0.222656 -46.003906 0.265625 -46.234375 C 0.441406 -46.328125 0.769531 -46.414062 1.25 -46.5 C 2.90625 -46.65625 4.414062 -46.320312 5.78125 -45.5 C 6.519531 -45.019531 6.890625 -44.347656 6.890625 -43.484375 C 6.890625 -39.085938 6.910156 -35.78125 6.953125 -33.5625 L 7.015625 -23.953125 C 7.015625 -22.023438 6.972656 -19.226562 6.890625 -15.5625 L 6.890625 -10.453125 C 6.972656 -8.765625 7.148438 -7.34375 7.421875 -6.1875 C 7.648438 -5.425781 8.203125 -4.675781 9.078125 -3.9375 C 9.316406 -3.882812 9.484375 -3.90625 9.578125 -4 C 9.929688 -4.351562 10.109375 -4.53125 10.109375 -4.53125 C 10.671875 -5.269531 11.066406 -5.820312 11.296875 -6.1875 L 15.765625 -15.09375 C 16.160156 -15.9375 16.726562 -17.234375 17.46875 -18.984375 C 17.738281 -19.722656 18.265625 -20.160156 19.046875 -20.296875 Z M 19.3125 -20.296875 "/></g></g></g><g fill="#000000" fill-opacity="1"><g transform="translate(276.658758, 211.054901)"><g><path d="M 19.3125 -20.296875 C 19.695312 -20.296875 19.957031 -20.191406 20.09375 -19.984375 C 20.226562 -19.785156 20.25 -19.519531 20.15625 -19.1875 C 19.414062 -16.070312 18.65625 -13.6875 17.875 -12.03125 C 17.46875 -11.113281 16.894531 -9.742188 16.15625 -7.921875 C 15.757812 -6.898438 15.394531 -6.066406 15.0625 -5.421875 C 14.738281 -4.785156 14.332031 -4.164062 13.84375 -3.5625 C 12.457031 -1.96875 10.9375 -0.957031 9.28125 -0.53125 C 8.601562 -0.351562 7.828125 -0.265625 6.953125 -0.265625 C 5.722656 -0.265625 4.476562 -0.523438 3.21875 -1.046875 C 2.394531 -1.398438 1.710938 -1.96875 1.171875 -2.75 C 0.347656 -4.03125 -0.21875 -5.703125 -0.53125 -7.765625 C -0.625 -8.546875 -0.671875 -9.742188 -0.671875 -11.359375 L -0.671875 -13.78125 C -0.671875 -15.789062 -0.648438 -17.300781 -0.609375 -18.3125 C -0.609375 -20.28125 -0.5625 -23.144531 -0.46875 -26.90625 L -0.53125 -26.90625 L -0.609375 -30.28125 C -0.609375 -33.476562 -0.5625 -38.289062 -0.46875 -44.71875 L -0.46875 -45.125 C -0.46875 -45.632812 -0.222656 -46.003906 0.265625 -46.234375 C 0.441406 -46.328125 0.769531 -46.414062 1.25 -46.5 C 2.90625 -46.65625 4.414062 -46.320312 5.78125 -45.5 C 6.519531 -45.019531 6.890625 -44.347656 6.890625 -43.484375 C 6.890625 -39.085938 6.910156 -35.78125 6.953125 -33.5625 L 7.015625 -23.953125 C 7.015625 -22.023438 6.972656 -19.226562 6.890625 -15.5625 L 6.890625 -10.453125 C 6.972656 -8.765625 7.148438 -7.34375 7.421875 -6.1875 C 7.648438 -5.425781 8.203125 -4.675781 9.078125 -3.9375 C 9.316406 -3.882812 9.484375 -3.90625 9.578125 -4 C 9.929688 -4.351562 10.109375 -4.53125 10.109375 -4.53125 C 10.671875 -5.269531 11.066406 -5.820312 11.296875 -6.1875 L 15.765625 -15.09375 C 16.160156 -15.9375 16.726562 -17.234375 17.46875 -18.984375 C 17.738281 -19.722656 18.265625 -20.160156 19.046875 -20.296875 Z M 19.3125 -20.296875 "/></g></g></g><g fill="#000000" fill-opacity="1"><g transform="translate(294.131007, 211.054901)"><g><path d="M 24.09375 -19.046875 C 23.570312 -18.222656 22.976562 -17.519531 22.3125 -16.9375 C 21.007812 -15.707031 19.609375 -14.765625 18.109375 -14.109375 C 17.640625 -13.929688 17.382812 -13.585938 17.34375 -13.078125 C 17.070312 -11.753906 16.566406 -10.304688 15.828125 -8.734375 C 15.265625 -7.585938 14.601562 -6.554688 13.84375 -5.640625 C 12.925781 -4.628906 11.816406 -3.96875 10.515625 -3.65625 C 9.460938 -3.414062 8.476562 -3.296875 7.5625 -3.296875 C 6.882812 -3.296875 6.15625 -3.363281 5.375 -3.5 C 3.71875 -3.832031 2.453125 -4.796875 1.578125 -6.390625 C 0.972656 -7.347656 0.46875 -8.703125 0.0625 -10.453125 C -0.425781 -12.421875 -0.671875 -14.625 -0.671875 -17.0625 C -0.671875 -18.675781 -0.378906 -20.804688 0.203125 -23.453125 C 0.710938 -25.535156 1.8125 -27.441406 3.5 -29.171875 C 4.414062 -30.085938 5.75 -30.546875 7.5 -30.546875 C 9.101562 -30.546875 10.691406 -30.148438 12.265625 -29.359375 L 13.265625 -28.765625 C 14.484375 -27.929688 15.132812 -26.765625 15.21875 -25.265625 C 15.21875 -24.835938 15.375 -24.378906 15.6875 -23.890625 C 16.738281 -22.503906 17.378906 -20.847656 17.609375 -18.921875 L 17.8125 -16.734375 C 17.8125 -16.441406 17.929688 -16.375 18.171875 -16.53125 C 18.929688 -16.976562 19.582031 -17.421875 20.125 -17.859375 C 20.664062 -18.296875 21.09375 -18.816406 21.40625 -19.421875 C 21.675781 -19.867188 22.15625 -20.09375 22.84375 -20.09375 C 23.40625 -20.09375 23.800781 -20.003906 24.03125 -19.828125 C 24.25 -19.597656 24.269531 -19.335938 24.09375 -19.046875 Z M 12.03125 -14.109375 C 11.113281 -14.472656 10.40625 -14.976562 9.90625 -15.625 C 9.082031 -16.632812 8.582031 -17.597656 8.40625 -18.515625 C 8.269531 -19.160156 8.203125 -19.796875 8.203125 -20.421875 C 8.203125 -21.898438 8.640625 -23.144531 9.515625 -24.15625 C 9.691406 -24.332031 9.78125 -24.476562 9.78125 -24.59375 C 9.78125 -24.707031 9.710938 -24.882812 9.578125 -25.125 C 9.441406 -25.3125 9.273438 -25.3125 9.078125 -25.125 C 8.535156 -24.257812 8.148438 -23.476562 7.921875 -22.78125 C 7.234375 -20.71875 6.890625 -18.789062 6.890625 -17 C 6.890625 -14.25 7.300781 -11.582031 8.125 -9 C 8.21875 -8.738281 8.332031 -8.492188 8.46875 -8.265625 C 8.601562 -8.035156 8.710938 -7.78125 8.796875 -7.5 C 8.847656 -7.363281 8.960938 -7.335938 9.140625 -7.421875 L 9.375 -7.625 C 10.875 -9.457031 11.878906 -11.429688 12.390625 -13.546875 C 12.441406 -13.742188 12.453125 -13.863281 12.421875 -13.90625 C 12.398438 -13.957031 12.269531 -14.023438 12.03125 -14.109375 Z M 13.203125 -18.578125 C 13.203125 -19.546875 13.046875 -20.441406 12.734375 -21.265625 L 12.53125 -21.40625 C 12.4375 -21.40625 12.390625 -21.335938 12.390625 -21.203125 C 12.234375 -20.734375 12.15625 -20.226562 12.15625 -19.6875 C 12.15625 -18.8125 12.367188 -17.914062 12.796875 -17 L 13.078125 -16.734375 C 13.160156 -17.648438 13.203125 -18.265625 13.203125 -18.578125 Z M 13.203125 -18.578125 "/></g></g></g></svg>